<?xml version="1.0" encoding="UTF-8"?>
<svg version="1.1" xmlns="http://www.w3.org/2000/svg" width="512" height="512">
<path d="M0 0 C0.82127884 -0.00960754 1.64255768 -0.01921509 2.48872375 -0.02911377 C3.81531258 -0.03548859 3.81531258 -0.03548859 5.16870117 -0.04199219 C6.53933968 -0.0505423 6.53933968 -0.0505423 7.93766785 -0.05926514 C9.87184492 -0.06871136 11.80603807 -0.07524762 13.74023438 -0.07910156 C16.68998528 -0.08879592 19.63903599 -0.11981817 22.58862305 -0.15136719 C24.46947829 -0.15789867 26.35033851 -0.16314857 28.23120117 -0.16699219 C29.10952103 -0.17933899 29.98784088 -0.19168579 30.89277649 -0.20440674 C36.80722679 -0.18304031 40.98777332 0.76985499 45.69213867 4.63378906 C51.44399992 11.19123312 52.85196775 18.43570418 53.58276367 26.98144531 C54.22405795 39.57896239 54.22405795 39.57896239 59.98901367 50.18017578 C64.87731763 53.10022307 70.08281439 54.48994375 75.62915039 55.61083984 C77.89916992 56.16113281 77.89916992 56.16113281 81.21557617 57.87597656 C83.75921 59.32337975 83.75921 59.32337975 86.26635742 59.20019531 C90.29911298 57.60863303 93.55242587 55.10166799 97.02416992 52.53613281 C98.53981504 51.44190701 100.05674342 50.34945649 101.57495117 49.25878906 C102.31181152 48.72785645 103.04867188 48.19692383 103.80786133 47.64990234 C118.80719989 36.97211031 118.80719989 36.97211031 128.89916992 38.16113281 C137.20810901 40.26117156 142.81306124 46.30713023 148.61230469 52.22241211 C150.20871255 53.84562579 151.83010721 55.44036732 153.45581055 57.03417969 C159.88262102 63.43879347 165.81953405 69.71840088 166.33666992 79.22363281 C165.51984421 86.57506424 162.62998228 92.08757168 158.21166992 97.91113281 C157.32514828 99.12256455 156.43975092 100.33481975 155.55541992 101.54785156 C154.89219727 102.44963135 154.89219727 102.44963135 154.21557617 103.36962891 C152.18366542 106.1348665 150.18041192 108.91262971 148.21166992 111.72363281 C147.54780273 112.65304688 146.88393555 113.58246094 146.19995117 114.54003906 C144.70783405 117.02502842 144.70783405 117.02502842 144.98120117 119.51269531 C146.22239742 123.09367853 147.704288 126.52573098 149.27416992 129.97363281 C149.88831278 131.33333468 150.5002966 132.69401382 151.11010742 134.05566406 C151.42842529 134.72839355 151.74674316 135.40112305 152.07470703 136.09423828 C152.89916992 138.16113281 152.89916992 138.16113281 153.22558594 140.34130859 C153.6998418 142.94002799 154.1038442 144.19357121 155.89916992 146.16113281 C161.16896736 148.0168256 166.56526338 148.68486315 172.08666992 149.41113281 C175.06228612 149.83526272 178.03432767 150.27948153 181.00463867 150.73925781 C181.71243469 150.84827927 182.42023071 150.95730072 183.1494751 151.06962585 C189.77328436 152.16522595 195.76929066 154.0755805 200.27416992 159.34863281 C200.7356543 159.8578125 201.19713867 160.36699219 201.67260742 160.89160156 C205.98693993 168.8744907 205.20085295 178.3750187 205.14916992 187.16113281 C205.1569043 188.47597656 205.16463867 189.79082031 205.17260742 191.14550781 C205.13544351 209.65313812 205.13544351 209.65313812 199.71166992 215.53613281 C199.16124023 216.16261719 198.61081055 216.78910156 198.04370117 217.43457031 C192.94831455 221.53686701 187.66672727 222.52886972 181.27807617 223.06347656 C166.4198918 223.98545942 166.4198918 223.98545942 153.63012695 230.29833984 C150.57508693 235.14442914 149.29675028 240.30062064 148.36889648 245.90722656 C147.89916992 248.16113281 147.89916992 248.16113281 146.20385742 251.47363281 C144.73506095 254.01825917 144.73506095 254.01825917 144.86010742 256.52832031 C146.45166971 260.56107587 148.95863475 263.81438876 151.52416992 267.28613281 C152.61839573 268.80177793 153.71084624 270.31870631 154.80151367 271.83691406 C155.33244629 272.57377441 155.86337891 273.31063477 156.41040039 274.06982422 C166.92881264 288.84527836 166.92881264 288.84527836 165.89916992 299.16113281 C162.86906618 309.14265102 153.95353746 316.28831223 146.77416992 323.47363281 C145.98913086 324.27091797 145.2040918 325.06820313 144.39526367 325.88964844 C143.24864258 327.03916992 143.24864258 327.03916992 142.07885742 328.21191406 C141.39549316 328.89938721 140.71212891 329.58686035 140.00805664 330.29516602 C134.68813517 335.00229264 130.0790375 336.48780702 123.0300293 336.37817383 C116.52520302 335.71561762 111.23874126 332.33507007 106.14916992 328.47363281 C104.93773818 327.58711117 103.72548298 326.70171381 102.51245117 325.81738281 C101.61067139 325.15416016 101.61067139 325.15416016 100.69067383 324.47753906 C97.92543624 322.44562831 95.14767302 320.44237481 92.33666992 318.47363281 C91.40725586 317.80976563 90.4778418 317.14589844 89.52026367 316.46191406 C87.03527431 314.96979694 87.03527431 314.96979694 84.54760742 315.24316406 C80.9666242 316.48436031 77.53457175 317.96625089 74.08666992 319.53613281 C72.72696805 320.15027567 71.36628891 320.76225949 70.00463867 321.37207031 C69.33190918 321.69038818 68.65917969 322.00870605 67.96606445 322.33666992 C65.89916992 323.16113281 65.89916992 323.16113281 63.71899414 323.48754883 C61.12027474 323.96180469 59.86673152 324.36580709 57.89916992 326.16113281 C56.04347713 331.43093025 55.37543958 336.82722627 54.64916992 342.34863281 C54.2250401 345.32424845 53.78094007 348.29630913 53.32104492 351.26660156 C53.15710487 352.32836357 53.15710487 352.32836357 52.98985291 353.41157532 C51.85885518 360.23689324 49.95863318 366.15891686 44.33666992 370.59863281 C43.75788086 371.07171875 43.1790918 371.54480469 42.58276367 372.03222656 C39.70743365 373.96023208 37.16014685 374.29044486 33.79833984 374.32226562 C32.977061 374.33187317 32.15578217 374.34148071 31.30961609 374.35137939 C29.98302727 374.35775421 29.98302727 374.35775421 28.62963867 374.36425781 C27.71587967 374.36995789 26.80212067 374.37565796 25.860672 374.38153076 C23.92649492 374.39097699 21.99230177 374.39751325 20.05810547 374.40136719 C17.10835457 374.41106155 14.15930385 374.44208379 11.2097168 374.47363281 C9.32886155 374.48016429 7.44800133 374.48541419 5.56713867 374.48925781 C4.68881882 374.50160461 3.81049896 374.51395142 2.90556335 374.52667236 C-3.00888695 374.50530593 -7.18943348 373.55241063 -11.89379883 369.68847656 C-17.64566007 363.13103251 -19.0536279 355.88656145 -19.78442383 347.34082031 C-20.42571811 334.74330323 -20.42571811 334.74330323 -26.19067383 324.14208984 C-31.07897778 321.22204256 -36.28447454 319.83232187 -41.83081055 318.71142578 C-44.10083008 318.16113281 -44.10083008 318.16113281 -47.41723633 316.44628906 C-49.96087016 314.99888588 -49.96087016 314.99888588 -52.46801758 315.12207031 C-56.50077314 316.7136326 -59.75408603 319.22059764 -63.22583008 321.78613281 C-64.74147519 322.88035862 -66.25840357 323.97280914 -67.77661133 325.06347656 C-68.88190186 325.85987549 -68.88190186 325.85987549 -70.00952148 326.67236328 C-85.00886005 337.35015531 -85.00886005 337.35015531 -95.10083008 336.16113281 C-103.40976917 334.06109407 -109.01472139 328.01513539 -114.81396484 322.09985352 C-116.41037271 320.47663984 -118.03176737 318.8818983 -119.6574707 317.28808594 C-126.08428118 310.88347216 -132.0211942 304.60386475 -132.53833008 295.09863281 C-131.72150436 287.74720138 -128.83164243 282.23469395 -124.41333008 276.41113281 C-123.52680844 275.19970107 -122.64141107 273.98744587 -121.75708008 272.77441406 C-121.31493164 272.17322754 -120.8727832 271.57204102 -120.41723633 270.95263672 C-118.38532558 268.18739913 -116.38207208 265.40963591 -114.41333008 262.59863281 C-113.74946289 261.66921875 -113.0855957 260.73980469 -112.40161133 259.78222656 C-110.90949421 257.2972372 -110.90949421 257.2972372 -111.18286133 254.80957031 C-112.42405758 251.22858709 -113.90594815 247.79653465 -115.47583008 244.34863281 C-116.08997293 242.98893094 -116.70195675 241.6282518 -117.31176758 240.26660156 C-117.63008545 239.59387207 -117.94840332 238.92114258 -118.27636719 238.22802734 C-119.10083008 236.16113281 -119.10083008 236.16113281 -119.42724609 233.98095703 C-119.90150195 231.38223763 -120.30550436 230.12869441 -122.10083008 228.16113281 C-127.37062752 226.30544002 -132.76692354 225.63740248 -138.28833008 224.91113281 C-141.26394627 224.48700291 -144.23598783 224.0427841 -147.20629883 223.58300781 C-148.26799286 223.41947563 -148.26799286 223.41947563 -149.35113525 223.25263977 C-155.97494451 222.15703967 -161.97095082 220.24668513 -166.47583008 214.97363281 C-166.93731445 214.46445312 -167.39879883 213.95527344 -167.87426758 213.43066406 C-172.18860009 205.44777493 -171.4025131 195.94724692 -171.35083008 187.16113281 C-171.35856445 185.84628906 -171.36629883 184.53144531 -171.37426758 183.17675781 C-171.33710366 164.6691275 -171.33710366 164.6691275 -165.91333008 158.78613281 C-165.36290039 158.15964844 -164.8124707 157.53316406 -164.24536133 156.88769531 C-159.1499747 152.78539861 -153.86838743 151.7933959 -147.47973633 151.25878906 C-132.62155196 150.3368062 -132.62155196 150.3368062 -119.83178711 144.02392578 C-116.77674708 139.17783649 -115.49841044 134.02164498 -114.57055664 128.41503906 C-114.10083008 126.16113281 -114.10083008 126.16113281 -112.40551758 122.84863281 C-110.93672111 120.30400645 -110.93672111 120.30400645 -111.06176758 117.79394531 C-112.65332986 113.76118975 -115.16029491 110.50787686 -117.72583008 107.03613281 C-118.82005588 105.5204877 -119.9125064 104.00355932 -121.00317383 102.48535156 C-121.53410645 101.74849121 -122.06503906 101.01163086 -122.61206055 100.25244141 C-133.28985258 85.25310284 -133.28985258 85.25310284 -132.10083008 75.16113281 C-130.00079133 66.85219372 -123.95483266 61.2472415 -118.03955078 55.44799805 C-116.4163371 53.85159018 -114.82159557 52.23019552 -113.2277832 50.60449219 C-106.82316942 44.17768171 -100.54356201 38.24076869 -91.03833008 37.72363281 C-82.84830643 38.63363544 -77.13797125 42.19132787 -70.66333008 46.97363281 C-69.17010074 48.04691164 -67.67661367 49.11983199 -66.18286133 50.19238281 C-63.83995314 51.89164667 -61.50496153 53.60027759 -59.17504883 55.31738281 C-58.40805664 55.86394531 -57.64106445 56.41050781 -56.85083008 56.97363281 C-56.22692383 57.43382812 -55.60301758 57.89402344 -54.96020508 58.36816406 C-51.80468719 59.71389963 -49.41825783 58.68166768 -46.33178711 57.4621582 C-44.30315816 56.59913478 -42.29470091 55.69966384 -40.28833008 54.78613281 C-38.92862821 54.17198996 -37.56794907 53.56000614 -36.20629883 52.95019531 C-35.53356934 52.63187744 -34.86083984 52.31355957 -34.16772461 51.9855957 C-32.10083008 51.16113281 -32.10083008 51.16113281 -29.9206543 50.8347168 C-27.3219349 50.36046094 -26.06839168 49.95645854 -24.10083008 48.16113281 C-22.24513729 42.89133538 -21.57709974 37.49503935 -20.85083008 31.97363281 C-20.42670025 28.99801718 -19.98260023 26.0259565 -19.52270508 23.05566406 C-19.35876503 21.99390205 -19.35876503 21.99390205 -19.19151306 20.91069031 C-18.06051534 14.08537239 -16.16029334 8.16334876 -10.53833008 3.72363281 C-9.95954102 3.25054687 -9.38075195 2.77746094 -8.78442383 2.29003906 C-5.9090938 0.36203355 -3.361807 0.03182076 0 0 Z M-2.10083008 16.16113281 C-3.27547292 18.50723071 -3.27547292 18.50723071 -3.75317383 21.37988281 C-3.98246582 22.45882812 -4.21175781 23.53777344 -4.44799805 24.64941406 C-4.66343262 25.80828125 -4.87886719 26.96714844 -5.10083008 28.16113281 C-5.42978271 29.91490234 -5.42978271 29.91490234 -5.76538086 31.70410156 C-6.65042781 36.60997979 -7.47383434 41.52533172 -8.29418945 46.44238281 C-8.49979492 47.63863281 -8.70540039 48.83488281 -8.91723633 50.06738281 C-9.18709351 51.6809668 -9.18709351 51.6809668 -9.46240234 53.32714844 C-10.06340369 55.99499686 -10.54532 57.91887655 -12.10083008 60.16113281 C-14.09350586 61.22265625 -14.09350586 61.22265625 -16.54614258 62.02050781 C-17.45098389 62.32802979 -18.3558252 62.63555176 -19.28808594 62.95239258 C-20.2575415 63.26877686 -21.22699707 63.58516113 -22.22583008 63.91113281 C-30.17554031 66.61721029 -37.63823538 69.5908179 -44.91186523 73.81054688 C-49.40645996 76.28547332 -52.18036329 76.58490424 -57.10083008 75.16113281 C-59.75217643 73.75582173 -62.12520842 72.06393543 -64.53833008 70.28613281 C-65.22064697 69.80305664 -65.90296387 69.31998047 -66.60595703 68.82226562 C-69.52629161 66.75362574 -72.42342108 64.65382103 -75.31762695 62.54882812 C-77.46629263 60.99109309 -79.62683955 59.45099687 -81.78833008 57.91113281 C-82.44696045 57.4214502 -83.10559082 56.93176758 -83.78417969 56.42724609 C-87.29391056 53.86364134 -87.29391056 53.86364134 -91.46777344 53.23364258 C-96.76647529 55.10010232 -100.45900018 59.81570611 -104.35961914 63.73364258 C-105.97286774 65.34567271 -107.61320167 66.9261269 -109.25708008 68.50683594 C-110.28751119 69.52912812 -111.31621887 70.55316102 -112.34301758 71.57910156 C-113.28000488 72.50489014 -114.21699219 73.43067871 -115.18237305 74.38452148 C-117.42347801 77.03762935 -117.42347801 77.03762935 -116.98950195 80.3581543 C-115.99599496 83.49179544 -114.74987714 85.45030942 -112.72583008 88.03613281 C-112.01297852 88.97457031 -111.30012695 89.91300781 -110.56567383 90.87988281 C-110.1736377 91.39550781 -109.78160156 91.91113281 -109.37768555 92.44238281 C-106.92494529 95.74396817 -104.61350298 99.14412499 -102.28833008 102.53613281 C-101.82056152 103.21401855 -101.35279297 103.8919043 -100.87084961 104.59033203 C-99.99062252 105.87236737 -99.11811335 107.15974732 -98.25463867 108.453125 C-97.28002439 109.8958676 -96.25256039 111.30269657 -95.21411133 112.70019531 C-93.58962563 116.2911637 -94.13669182 118.36012684 -95.10083008 122.16113281 C-96.3396177 125.20238158 -97.79924665 128.11081316 -99.28833008 131.03613281 C-102.82484084 138.17166663 -105.7680203 145.27746847 -108.07226562 152.90478516 C-109.64767064 157.83893688 -109.64767064 157.83893688 -111.65014648 159.26269531 C-115.24397442 160.58021741 -118.93718608 161.15600907 -122.69848633 161.78222656 C-124.40361846 162.08074639 -126.10869495 162.37958414 -127.8137207 162.67871094 C-130.49470234 163.14166205 -133.17622929 163.60081169 -135.85888672 164.05395508 C-138.45316962 164.49469093 -141.04456119 164.95003096 -143.63598633 165.40722656 C-144.43915787 165.53858505 -145.24232941 165.66994354 -146.06983948 165.80528259 C-151.30909201 166.72828521 -151.30909201 166.72828521 -155.10083008 170.16113281 C-155.39901586 172.78366739 -155.52141932 175.16407247 -155.49926758 177.78613281 C-155.50213776 178.52943848 -155.50500793 179.27274414 -155.50796509 180.03857422 C-155.51000484 181.60873172 -155.50448108 183.17891467 -155.49194336 184.74902344 C-155.4758871 187.15259613 -155.4917936 189.55448742 -155.51098633 191.95800781 C-155.50900388 193.48405319 -155.50516017 195.01009752 -155.49926758 196.53613281 C-155.50534027 197.25494629 -155.51141296 197.97375977 -155.51766968 198.71435547 C-155.52400216 202.53074355 -155.52400216 202.53074355 -153.81190491 205.81504822 C-150.88154556 208.12033114 -147.22901092 208.32740085 -143.63598633 208.91503906 C-142.80626816 209.06142319 -141.97654999 209.20780731 -141.12168884 209.35862732 C-138.47072147 209.82491684 -135.81739182 210.27531969 -133.16333008 210.72363281 C-130.51324971 211.17745817 -127.86389663 211.63475191 -125.21568298 212.09934998 C-123.5685436 212.38771694 -121.92025385 212.6696067 -120.27076721 212.94422913 C-112.58637268 214.27794997 -112.58637268 214.27794997 -110.10083008 216.16113281 C-108.93164062 218.36914062 -108.93164062 218.36914062 -107.98754883 221.11425781 C-107.62967285 222.11980713 -107.27179688 223.12535645 -106.90307617 224.16137695 C-106.35127686 225.7700061 -106.35127686 225.7700061 -105.78833008 227.41113281 C-102.82072763 235.77184158 -99.66405385 243.58196644 -95.21801758 251.25878906 C-93.73439849 255.1130862 -94.01168738 257.18489755 -95.10083008 261.16113281 C-96.50089076 263.81518911 -98.19815509 266.18568439 -99.97583008 268.59863281 C-100.45890625 269.28094971 -100.94198242 269.9632666 -101.43969727 270.66625977 C-103.50833715 273.58659435 -105.60814186 276.48372382 -107.71313477 279.37792969 C-109.2708698 281.52659536 -110.81096603 283.68714228 -112.35083008 285.84863281 C-112.8405127 286.50726318 -113.33019531 287.16589355 -113.8347168 287.84448242 C-116.39832155 291.35421329 -116.39832155 291.35421329 -117.02832031 295.52807617 C-115.16186057 300.82677802 -110.44625678 304.51930291 -106.52832031 308.41992188 C-104.91629018 310.03317048 -103.33583599 311.67350441 -101.75512695 313.31738281 C-100.73283477 314.34781393 -99.70880187 315.3765216 -98.68286133 316.40332031 C-97.75707275 317.34030762 -96.83128418 318.27729492 -95.87744141 319.24267578 C-93.23858881 321.46156688 -93.23858881 321.46156688 -90.00390625 321.12255859 C-87.22496618 320.20224357 -85.38358552 319.29694265 -83.06958008 317.53613281 C-82.34810791 316.99811035 -81.62663574 316.46008789 -80.88330078 315.90576172 C-80.13008545 315.33003418 -79.37687012 314.75430664 -78.60083008 314.16113281 C-77.0022505 312.97916862 -75.40197031 311.79950123 -73.80004883 310.62207031 C-73.00904785 310.03780273 -72.21804687 309.45353516 -71.40307617 308.8515625 C-68.1122116 306.43523733 -64.79646637 304.07143018 -61.41333008 301.78613281 C-59.8297168 300.69171875 -59.8297168 300.69171875 -58.21411133 299.57519531 C-54.19087088 297.74782637 -52.35238376 298.01316794 -48.10083008 299.16113281 C-45.0618892 300.40566175 -42.15126124 301.85949262 -39.22583008 303.34863281 C-32.09029626 306.88514357 -24.98449442 309.82832303 -17.35717773 312.13256836 C-12.42302601 313.70797337 -12.42302601 313.70797337 -10.99926758 315.71044922 C-9.68174548 319.30427716 -9.10595382 322.99748882 -8.47973633 326.75878906 C-8.1812165 328.46392119 -7.88237875 330.16899768 -7.58325195 331.87402344 C-7.12030084 334.55500507 -6.6611512 337.23653203 -6.20800781 339.91918945 C-5.76727196 342.51347235 -5.31193193 345.10486393 -4.85473633 347.69628906 C-4.72337784 348.4994606 -4.59201935 349.30263214 -4.4566803 350.13014221 C-3.74534467 354.11499044 -3.26549438 356.58132113 -0.10083008 359.16113281 C5.29963128 360.9612866 11.12329352 360.34580455 16.77416992 360.34863281 C18.05420898 360.36087891 19.33424805 360.373125 20.65307617 360.38574219 C21.88670898 360.38767578 23.1203418 360.38960938 24.39135742 360.39160156 C25.51912598 360.39571045 26.64689453 360.39981934 27.80883789 360.40405273 C31.02098864 360.15155708 33.12920283 359.81535458 35.89916992 358.16113281 C37.07381277 355.81503492 37.07381277 355.81503492 37.55151367 352.94238281 C37.78080566 351.8634375 38.01009766 350.78449219 38.24633789 349.67285156 C38.46177246 348.51398438 38.67720703 347.35511719 38.89916992 346.16113281 C39.22812256 344.40736328 39.22812256 344.40736328 39.5637207 342.61816406 C40.44876765 337.71228583 41.27217418 332.79693391 42.0925293 327.87988281 C42.29813477 326.68363281 42.50374023 325.48738281 42.71557617 324.25488281 C42.89548096 323.17916016 43.07538574 322.1034375 43.26074219 320.99511719 C43.86541548 318.31096897 44.31630273 316.40454446 45.89916992 314.16113281 C48.10717773 312.99194336 48.10717773 312.99194336 50.85229492 312.04785156 C51.85784424 311.68997559 52.86339355 311.33209961 53.89941406 310.96337891 C54.9718335 310.5955127 56.04425293 310.22764648 57.14916992 309.84863281 C65.50987869 306.88103037 73.32000355 303.72435658 80.99682617 299.27832031 C84.85112331 297.79470123 86.92293466 298.07199011 90.89916992 299.16113281 C93.55322622 300.56119349 95.9237215 302.25845782 98.33666992 304.03613281 C99.01898682 304.51920898 99.70130371 305.00228516 100.40429688 305.5 C103.32463146 307.56863989 106.22176093 309.6684446 109.1159668 311.7734375 C111.26463247 313.33117253 113.42517939 314.87126876 115.58666992 316.41113281 C116.24530029 316.90081543 116.90393066 317.39049805 117.58251953 317.89501953 C121.0922504 320.45862428 121.0922504 320.45862428 125.26611328 321.08862305 C130.56481513 319.2221633 134.25734002 314.50655951 138.15795898 310.58862305 C139.77120758 308.97659291 141.41154152 307.39613872 143.05541992 305.81542969 C144.08585104 304.79313751 145.11455871 303.76910461 146.14135742 302.74316406 C147.07834473 301.81737549 148.01533203 300.89158691 148.98071289 299.93774414 C151.19960399 297.29889154 151.19960399 297.29889154 150.8605957 294.06420898 C149.94028068 291.28526892 149.03497976 289.44388825 147.27416992 287.12988281 C146.73614746 286.40841064 146.198125 285.68693848 145.64379883 284.94360352 C145.06807129 284.19038818 144.49234375 283.43717285 143.89916992 282.66113281 C142.71720573 281.06255324 141.53753834 279.46227305 140.36010742 277.86035156 C139.77583984 277.06935059 139.19157227 276.27834961 138.58959961 275.46337891 C136.17327444 272.17251433 133.80946729 268.85676911 131.52416992 265.47363281 C130.79456055 264.41789063 130.06495117 263.36214844 129.31323242 262.27441406 C127.48586348 258.25117361 127.75120505 256.41268649 128.89916992 252.16113281 C130.14369575 249.12219952 131.59729085 246.21144 133.08666992 243.28613281 C136.62679482 236.15605176 139.56048295 229.06812391 141.78271484 221.41748047 C143.34189483 216.45869793 143.34189483 216.45869793 145.9621582 215.05957031 C149.72930656 213.90719243 153.49730045 213.20830883 157.37573242 212.54003906 C159.03204934 212.24158208 160.68829736 211.94274251 162.34448242 211.64355469 C164.94198759 211.18034771 167.54002233 210.72087285 170.1394043 210.26831055 C172.65766367 209.82761516 175.17294394 209.37234279 177.68823242 208.91503906 C178.46639313 208.78368057 179.24455383 208.65232208 180.04629517 208.51698303 C182.99405009 207.97389143 185.40058651 207.52461822 187.84985352 205.73901367 C191.33047308 200.50512716 190.08366503 193.28989982 190.08666992 187.28613281 C190.09891602 186.00609375 190.11116211 184.72605469 190.1237793 183.40722656 C190.12571289 182.17359375 190.12764648 180.93996094 190.12963867 179.66894531 C190.13374756 178.54117676 190.13785645 177.4134082 190.14208984 176.25146484 C189.88982258 173.04221964 189.54635713 170.93138821 187.89916992 168.16113281 C185.60542462 166.9872267 185.60542462 166.9872267 182.77416992 166.51269531 C181.69522461 166.28227539 180.6162793 166.05185547 179.50463867 165.81445312 C175.70480847 165.12591401 171.89919499 164.48529389 168.08666992 163.87207031 C166.0473411 163.53724321 164.00806953 163.20209001 161.96899414 162.86572266 C160.57675291 162.64402819 159.18239948 162.43525156 157.78637695 162.23876953 C146.1534494 160.57692274 146.1534494 160.57692274 143.17382812 157.21362305 C142.11020226 154.87063942 141.46917963 152.66689758 140.89916992 150.16113281 C140.43063603 148.85926208 139.94578531 147.56310777 139.44213867 146.27441406 C138.98910385 145.00791983 138.53730163 143.74098408 138.08666992 142.47363281 C135.65887474 135.73632155 132.64448875 129.57482831 129.12182617 123.34472656 C127.57684812 119.32186038 127.74093222 117.30353587 128.89916992 113.16113281 C130.30127744 110.50813607 131.99644918 108.13664333 133.77416992 105.72363281 C134.25724609 105.04131592 134.74032227 104.35899902 135.23803711 103.65600586 C137.30667699 100.73567128 139.40648171 97.83854181 141.51147461 94.94433594 C143.06920964 92.79567026 144.60930587 90.63512334 146.14916992 88.47363281 C146.63885254 87.81500244 147.12853516 87.15637207 147.63305664 86.4777832 C150.19666139 82.96805233 150.19666139 82.96805233 150.82666016 78.79418945 C148.96020041 73.4954876 144.24459662 69.80296271 140.32666016 65.90234375 C138.71463002 64.28909515 137.13417583 62.64876122 135.5534668 61.00488281 C134.53117461 59.9744517 133.50714172 58.94574402 132.48120117 57.91894531 C131.5554126 56.98195801 130.62962402 56.0449707 129.67578125 55.07958984 C127.02267339 52.83848488 127.02267339 52.83848488 123.70214844 53.27246094 C120.5685073 54.26596793 118.60999332 55.51208575 116.02416992 57.53613281 C115.08573242 58.24898437 114.14729492 58.96183594 113.18041992 59.69628906 C112.40698242 60.28434326 112.40698242 60.28434326 111.61791992 60.88427734 C108.31633457 63.3370176 104.91617774 65.64845991 101.52416992 67.97363281 C100.84628418 68.44140137 100.16839844 68.90916992 99.4699707 69.39111328 C98.18793536 70.27134037 96.90055542 71.14384954 95.60717773 72.00732422 C94.16443514 72.9819385 92.75760616 74.0094025 91.36010742 75.04785156 C87.76913903 76.67233726 85.70017589 76.12527107 81.89916992 75.16113281 C78.85792115 73.92234519 75.94948957 72.46271624 73.02416992 70.97363281 C65.8886361 67.43712205 58.78283426 64.49394259 51.15551758 62.18969727 C46.22136586 60.61429225 46.22136586 60.61429225 44.79760742 58.61181641 C43.48008532 55.01798847 42.90429367 51.32477681 42.27807617 47.56347656 C41.97955634 45.85834444 41.68071859 44.15326794 41.3815918 42.44824219 C40.91864069 39.76726056 40.45949104 37.0857336 40.00634766 34.40307617 C39.5656118 31.80879327 39.11027178 29.2174017 38.65307617 26.62597656 C38.52171768 25.82280502 38.39035919 25.01963348 38.25502014 24.19212341 C37.54368452 20.20727519 37.06383422 17.74094449 33.89916992 15.16113281 C28.49870856 13.36097903 22.67504632 13.97646108 17.02416992 13.97363281 C15.10411133 13.95526367 15.10411133 13.95526367 13.14526367 13.93652344 C11.91163086 13.93458984 10.67799805 13.93265625 9.40698242 13.93066406 C7.71532959 13.92450073 7.71532959 13.92450073 5.98950195 13.91821289 C2.7773512 14.17070855 0.66913702 14.50691105 -2.10083008 16.16113281 Z " fill="#000000" transform="translate(239.100830078125,68.8388671875)"/>
<path d="M0 0 C13.8041414 14.4830336 22.97898507 34.21059978 23.875 54.3125 C23.91496094 54.97765625 23.95492187 55.6428125 23.99609375 56.328125 C24.71089215 79.03348599 16.24530568 100.73329388 0.875 117.3125 C-16.01676951 134.85696539 -37.81672662 142.85230493 -61.85888672 143.31933594 C-84.51330768 143.25099681 -104.69999654 133.23806136 -120.75 117.78515625 C-136.0538146 101.89811701 -144.65684527 80.02178762 -144.2734375 57.9375 C-142.89190876 33.50625496 -133.57475832 13.11478188 -115.9375 -3.875 C-104.36122235 -14.04662472 -89.39116228 -21.34093442 -74.125 -23.6875 C-72.93777344 -23.87119141 -72.93777344 -23.87119141 -71.7265625 -24.05859375 C-45.06917097 -27.30070894 -19.51509373 -18.25235237 0 0 Z M-111.6171875 13.42578125 C-123.60430157 27.22403249 -130.05539979 45.15528933 -129.0625 63.4375 C-127.35393156 84.85971868 -117.20030011 101.01951926 -101.25 114.6875 C-87.43018598 125.22209674 -69.19760893 130.01742995 -51.96484375 127.875 C-32.50094049 124.87379467 -16.00199488 115.33895174 -4.0546875 99.58203125 C6.31301747 84.0304738 11.14777994 65.8522835 7.875 47.3125 C3.58997885 27.70081887 -7.23649957 11.39790337 -24.125 0.3125 C-53.97907498 -16.04947118 -87.8513319 -11.3895637 -111.6171875 13.42578125 Z " fill="#000000" transform="translate(316.125,196.6875)"/>
</svg>
