<?xml version="1.0" encoding="UTF-8"?>
<svg version="1.1" xmlns="http://www.w3.org/2000/svg" width="540" height="295">
<path d="M0 0 C0.74765625 0.52980469 1.4953125 1.05960938 2.265625 1.60546875 C2.95140625 2.08371094 3.6371875 2.56195313 4.34375 3.0546875 C14.95319191 11.34592459 21.46596779 24.46549329 23.265625 37.60546875 C23.39854567 40.93685949 23.3821967 44.26407103 23.36328125 47.59765625 C23.36115883 49.01656662 23.36115883 49.01656662 23.35899353 50.46414185 C23.35341984 53.46961704 23.3408722 56.47501628 23.328125 59.48046875 C23.3231066 61.5247385 23.31854429 63.56900943 23.31445312 65.61328125 C23.30345903 70.61070611 23.28621257 75.60807458 23.265625 80.60546875 C25.20828247 80.57404785 25.20828247 80.57404785 27.19018555 80.54199219 C32.05253794 80.46890883 36.91484306 80.42342328 41.77758789 80.38574219 C43.87142129 80.36578099 45.96520006 80.33860216 48.05883789 80.30371094 C62.52204853 80.06892977 75.09411522 80.27476046 87.765625 88.10546875 C88.7040625 88.67265625 89.6425 89.23984375 90.609375 89.82421875 C93.28757166 91.62018592 95.78050188 93.55254096 98.265625 95.60546875 C98.94044922 94.93451172 98.94044922 94.93451172 99.62890625 94.25 C111.62676924 82.97345142 127.39036253 79.90786024 143.51171875 80.328125 C157.06029206 81.32911221 172.35370423 84.89707814 181.8046875 95.5234375 C188.06171926 104.44054425 190.23409795 112.62813007 190.58203125 123.4140625 C190.62392578 124.65478516 190.66582031 125.89550781 190.70898438 127.17382812 C190.74830078 128.45064453 190.78761719 129.72746094 190.828125 131.04296875 C190.87130859 132.34685547 190.91449219 133.65074219 190.95898438 134.99414062 C191.06460024 138.19782191 191.16670601 141.40157486 191.265625 144.60546875 C191.63147453 143.59521889 191.63147453 143.59521889 192.00471497 142.56455994 C194.31217876 136.19390888 196.621612 129.82397486 198.93321705 123.4548254 C200.12134733 120.18096511 201.30873487 116.90683955 202.49438477 113.63208008 C203.85988801 109.86067083 205.22869337 106.09046735 206.59765625 102.3203125 C207.01964798 101.15338364 207.44163971 99.98645477 207.87641907 98.78416443 C208.99103965 95.71869486 210.12129548 92.65995585 211.265625 89.60546875 C211.54642914 88.84372345 211.82723328 88.08197815 212.11654663 87.29714966 C212.86987305 85.37329102 212.86987305 85.37329102 214.265625 82.60546875 C217.92635854 81.38522424 221.29844773 81.46224133 225.109375 81.47265625 C225.87487671 81.47169952 226.64037842 81.4707428 227.42907715 81.46975708 C229.04630618 81.46907709 230.66353795 81.47091878 232.28076172 81.47509766 C234.75624726 81.48044848 237.23155136 81.47514659 239.70703125 81.46875 C241.27864623 81.46941081 242.8502611 81.47069204 244.421875 81.47265625 C245.53290588 81.4696199 245.53290588 81.4696199 246.66638184 81.46652222 C249.80332649 81.48083593 252.2666976 81.60582628 255.265625 82.60546875 C256.24485779 84.44273376 256.24485779 84.44273376 257.10327148 86.87475586 C257.43048691 87.78337875 257.75770233 88.69200165 258.09483337 89.62815857 C258.43865555 90.61969437 258.78247772 91.61123016 259.13671875 92.6328125 C259.50031998 93.65089493 259.8639212 94.66897736 260.23854065 95.71791077 C261.40440753 98.98914194 262.55419099 102.26575639 263.703125 105.54296875 C264.85179287 108.78679136 266.00373122 112.02943142 267.15699768 115.2716217 C267.87390489 117.29062467 268.58758969 119.31077584 269.29747009 121.33226013 C271.23427896 126.8254597 273.28940802 132.24070373 275.53138733 137.61720276 C276.265625 139.60546875 276.265625 139.60546875 276.265625 141.60546875 C276.925625 141.27546875 277.585625 140.94546875 278.265625 140.60546875 C280.63685746 140.37516919 283.01304443 140.19426933 285.390625 140.04296875 C286.67195313 139.95917969 287.95328125 139.87539062 289.2734375 139.7890625 C290.26085937 139.72847656 291.24828125 139.66789063 292.265625 139.60546875 C291.74613281 139.19296875 291.22664063 138.78046875 290.69140625 138.35546875 C284.8999933 133.55962217 279.62149731 128.27970602 278.265625 120.60546875 C277.65046562 111.94281447 277.40356835 104.11260653 282.265625 96.60546875 C282.84957031 95.67154297 282.84957031 95.67154297 283.4453125 94.71875 C289.17140547 86.90890131 299.48867919 83.10599826 308.66796875 81.07421875 C324.68551611 78.9872419 341.32292164 79.68890456 355.265625 88.60546875 C361.2150677 93.27595256 364.75028691 98.80689813 367.015625 105.98046875 C367.41681313 110.19294413 367.32202692 114.37532501 367.265625 118.60546875 C359.345625 119.10046875 359.345625 119.10046875 351.265625 119.60546875 C352.60625 120.43046875 353.946875 121.25546875 355.328125 122.10546875 C360.55371639 125.57268579 365.42107864 129.91637603 368.265625 135.60546875 C368.56190921 139.30718242 368.543753 143.01829277 368.578125 146.73046875 C368.60712891 147.75140625 368.63613281 148.77234375 368.66601562 149.82421875 C368.73768097 158.40200904 366.65042146 164.68444649 360.859375 171.1640625 C349.53787229 181.40336275 333.93016979 183.32126005 319.265625 182.60546875 C310.02026476 181.82430997 301.83073552 180.16399488 293.265625 176.60546875 C292.275625 176.27546875 291.285625 175.94546875 290.265625 175.60546875 C290.265625 177.25546875 290.265625 178.90546875 290.265625 180.60546875 C277.065625 180.60546875 263.865625 180.60546875 250.265625 180.60546875 C247.265625 173.60546875 247.265625 173.60546875 246.265625 169.60546875 C238.345625 169.60546875 230.425625 169.60546875 222.265625 169.60546875 C220.780625 174.55546875 220.780625 174.55546875 219.265625 179.60546875 C218.265625 180.60546875 218.265625 180.60546875 216.17124939 180.72572327 C215.24969559 180.72350266 214.32814178 180.72128204 213.37866211 180.71899414 C212.33765854 180.71891861 211.29665497 180.71884308 210.22410583 180.71876526 C209.0918306 180.71360397 207.95955536 180.70844269 206.79296875 180.703125 C205.06379967 180.70100258 205.06379967 180.70100258 203.29969788 180.69883728 C199.60081436 180.6932188 195.90199036 180.68066317 192.203125 180.66796875 C189.70247483 180.66295613 187.20182371 180.65839281 184.70117188 180.65429688 C178.55596912 180.64324337 172.41080131 180.62648727 166.265625 180.60546875 C165.935625 178.95546875 165.605625 177.30546875 165.265625 175.60546875 C164.26595703 176.11207031 164.26595703 176.11207031 163.24609375 176.62890625 C147.60104614 184.19979642 129.83133761 184.82480286 113.265625 179.60546875 C109.20599774 177.81086957 105.64080693 175.68125683 102.1484375 172.94921875 C100.37982889 171.4118292 100.37982889 171.4118292 98.265625 171.60546875 C98.595625 174.90546875 98.925625 178.20546875 99.265625 181.60546875 C86.395625 181.60546875 73.525625 181.60546875 60.265625 181.60546875 C57.265625 175.60546875 57.265625 175.60546875 56.265625 171.60546875 C48.015625 171.60546875 39.765625 171.60546875 31.265625 171.60546875 C30.275625 174.90546875 29.285625 178.20546875 28.265625 181.60546875 C21.995625 181.60546875 15.725625 181.60546875 9.265625 181.60546875 C9.28657227 183.06774902 9.30751953 184.5300293 9.32910156 186.03662109 C9.40187432 191.49713222 9.44756017 196.95760104 9.48535156 202.41845703 C9.50538232 204.77530136 9.53261492 207.13209653 9.56738281 209.48876953 C9.61627672 212.88977237 9.63868002 216.29011425 9.65625 219.69140625 C9.67689514 220.73348236 9.69754028 221.77555847 9.71881104 222.84921265 C9.72190241 233.08424404 6.74199723 241.1098525 -0.328125 248.5625 C-10.1195788 256.8756986 -21.43785382 259.17065582 -33.90625 258.984375 C-43.92512909 257.99271044 -52.05160771 253.27583388 -58.3828125 245.609375 C-64.8402678 236.77368616 -66.2020136 227.17893719 -66.02734375 216.46875 C-66.02309891 215.46329636 -66.01885406 214.45784271 -66.01448059 213.42192078 C-65.99787146 210.25364829 -65.96025397 207.0860445 -65.921875 203.91796875 C-65.90680516 201.7519624 -65.89312081 199.58594594 -65.88085938 197.41992188 C-65.8480266 192.14821463 -65.79800895 186.87688948 -65.734375 181.60546875 C-66.394375 181.60546875 -67.054375 181.60546875 -67.734375 181.60546875 C-68.24052798 180.33707349 -68.73906599 179.06563773 -69.234375 177.79296875 C-69.5128125 177.08527344 -69.79125 176.37757813 -70.078125 175.6484375 C-70.734375 173.60546875 -70.734375 173.60546875 -70.734375 170.60546875 C-71.34665955 170.61213058 -71.95894409 170.61879242 -72.58978271 170.62565613 C-79.0147166 170.69249419 -85.43955026 170.73746867 -91.86474609 170.77026367 C-94.25638853 170.78526588 -96.64800385 170.80567422 -99.03955078 170.83178711 C-102.49518564 170.86854918 -105.95045392 170.88528139 -109.40625 170.8984375 C-110.45987732 170.91392136 -111.51350464 170.92940521 -112.59906006 170.94535828 C-125.03840515 170.94812127 -135.51066629 168.39919479 -144.703125 159.75390625 C-152.37943701 151.58969305 -155.09362081 142.55678144 -154.9453125 131.5078125 C-154.22102685 121.54217841 -149.72271569 113.00066952 -142.359375 106.29296875 C-135.44211674 100.77143222 -128.77046384 98.55833113 -120 98.2890625 C-118.70449219 98.24716797 -117.40898438 98.20527344 -116.07421875 98.16210938 C-114.71094024 98.12230204 -113.34765894 98.08258969 -111.984375 98.04296875 C-110.60545625 97.99974601 -109.22654974 97.95613054 -107.84765625 97.91210938 C-104.4766631 97.80602917 -101.10559674 97.70397025 -97.734375 97.60546875 C-98.023125 96.8578125 -98.311875 96.11015625 -98.609375 95.33984375 C-98.980625 94.355 -99.351875 93.37015625 -99.734375 92.35546875 C-100.105625 91.3809375 -100.476875 90.40640625 -100.859375 89.40234375 C-101.734375 86.60546875 -101.734375 86.60546875 -101.734375 82.60546875 C-89.854375 82.60546875 -77.974375 82.60546875 -65.734375 82.60546875 C-65.75757812 79.67800781 -65.78078125 76.75054687 -65.8046875 73.734375 C-65.82031955 70.87476026 -65.83244404 68.01515042 -65.84423828 65.15551758 C-65.8542479 63.17990969 -65.86785969 61.20431644 -65.88525391 59.22875977 C-65.90972509 56.37642793 -65.92090876 53.52429328 -65.9296875 50.671875 C-65.94001007 49.79962784 -65.95033264 48.92738068 -65.96096802 48.02870178 C-65.96305978 36.39450713 -62.99678634 27.4320613 -55 18.71484375 C-48.10132314 12.44907303 -39.53379526 8.6988959 -30.17578125 8.5703125 C-19.34812395 9.21462883 -8.72300663 12.0190108 -0.734375 19.60546875 C-0.18136719 20.13011719 0.37164062 20.65476562 0.94140625 21.1953125 C9.16442316 29.8672286 9.83783893 39.66997074 9.65625 51.14453125 C9.64877178 52.52028574 9.64308634 53.89605103 9.63909912 55.27182007 C9.62396666 58.85917574 9.58479607 62.44586367 9.5402832 66.03295898 C9.49905939 69.70677665 9.48103081 73.38070426 9.4609375 77.0546875 C9.41828615 84.23858273 9.35019022 91.4219315 9.265625 98.60546875 C12.235625 98.60546875 15.205625 98.60546875 18.265625 98.60546875 C18.57306641 97.57486328 18.57306641 97.57486328 18.88671875 96.5234375 C19.15613281 95.62238281 19.42554688 94.72132812 19.703125 93.79296875 C19.96996094 92.89964844 20.23679688 92.00632812 20.51171875 91.0859375 C21.06950373 89.2507382 21.65907075 87.42513149 22.265625 85.60546875 C20.945625 85.27546875 19.625625 84.94546875 18.265625 84.60546875 C18.26015656 83.76887222 18.26015656 83.76887222 18.25457764 82.91537476 C18.21233912 77.04116073 18.14271403 71.16769835 18.05810547 65.29394531 C18.03010749 63.11010301 18.00878918 60.92616336 17.99462891 58.7421875 C17.88313567 42.50877283 17.69780159 27.93228775 7.265625 14.60546875 C6.688125 13.73921875 6.110625 12.87296875 5.515625 11.98046875 C-2.6652442 3.34510682 -13.68661901 -1.88791297 -25.51953125 -2.6328125 C-39.80518094 -3.0033481 -52.20760604 -0.00919851 -63.14453125 9.7578125 C-73.37852687 20.29934055 -76.6734769 32.52266504 -78.734375 46.60546875 C-80.054375 46.60546875 -81.374375 46.60546875 -82.734375 46.60546875 C-83.77041009 41.33668505 -83.60557176 37.14285576 -82.234375 31.91796875 C-82.05277832 31.22171387 -81.87118164 30.52545898 -81.68408203 29.80810547 C-77.91327815 16.39020005 -69.48942494 5.221852 -57.359375 -1.76953125 C-55.50151102 -2.68035036 -53.62602241 -3.55612796 -51.734375 -4.39453125 C-50.40019531 -5.01328125 -50.40019531 -5.01328125 -49.0390625 -5.64453125 C-33.0414489 -12.06140133 -14.23167578 -9.29649789 0 0 Z M-52.734375 23.60546875 C-53.76443978 25.07098365 -54.73241687 26.5802849 -55.671875 28.10546875 C-56.45884766 29.3584375 -56.45884766 29.3584375 -57.26171875 30.63671875 C-60.7533226 37.67549575 -61.03308502 44.49715436 -61 52.203125 C-61.00191345 53.19622177 -61.0038269 54.18931854 -61.00579834 55.21250916 C-61.0071527 57.30093643 -61.00350892 59.38937235 -60.99511719 61.4777832 C-60.98439572 64.6618144 -60.99504403 67.8452829 -61.0078125 71.02929688 C-61.00649099 73.06640749 -61.00392879 75.10351775 -61 77.140625 C-61.00404846 78.08559341 -61.00809692 79.03056183 -61.01226807 80.00416565 C-60.97522232 85.26108119 -60.45389348 89.62919592 -58.734375 94.60546875 C-58.404375 94.60546875 -58.074375 94.60546875 -57.734375 94.60546875 C-57.72890656 93.56762741 -57.72890656 93.56762741 -57.72332764 92.50881958 C-57.68526346 85.94826426 -57.62820499 79.38817068 -57.55047226 72.82795906 C-57.51117265 69.45625147 -57.47889965 66.08479817 -57.46337891 62.71289062 C-57.44184388 58.82509978 -57.39513558 54.93827855 -57.34375 51.05078125 C-57.34252136 49.85558868 -57.34129272 48.66039612 -57.34002686 47.4289856 C-57.22649629 40.86294149 -56.47003973 35.689367 -53.68560791 29.71090698 C-52.7696493 27.68354412 -52.20418528 25.77466551 -51.734375 23.60546875 C-52.064375 23.60546875 -52.394375 23.60546875 -52.734375 23.60546875 Z M65.265625 85.60546875 C65.72097599 87.16884048 66.18005276 88.73112724 66.640625 90.29296875 C66.89585937 91.16308594 67.15109375 92.03320312 67.4140625 92.9296875 C67.69507813 93.81269531 67.97609375 94.69570312 68.265625 95.60546875 C68.52085937 96.4975 68.77609375 97.38953125 69.0390625 98.30859375 C70.09005646 100.80262296 70.09005646 100.80262296 72.65625 101.828125 C73.59984375 102.10527344 74.5434375 102.38242188 75.515625 102.66796875 C80.09406602 104.14817154 83.43272933 105.73079699 87.265625 108.60546875 C88.255625 109.26546875 89.245625 109.92546875 90.265625 110.60546875 C90.99313288 109.19855268 91.69702853 107.77940853 92.390625 106.35546875 C92.78507812 105.5665625 93.17953125 104.77765625 93.5859375 103.96484375 C94.47922681 101.65206891 94.47922681 101.65206891 93.6640625 99.52734375 C88.4935289 92.42147076 78.5055028 87.92265226 70.08203125 86.14453125 C68.48415306 85.9066178 66.87504466 85.74541829 65.265625 85.60546875 Z M318.265625 109.60546875 C317.935625 110.26546875 317.605625 110.92546875 317.265625 111.60546875 C321.555625 112.59546875 325.845625 113.58546875 330.265625 114.60546875 C329.69437146 110.86271663 329.69437146 110.86271663 328.265625 109.60546875 C326.57953534 109.53341364 324.89061841 109.52160807 323.203125 109.54296875 C322.28402344 109.55199219 321.36492187 109.56101562 320.41796875 109.5703125 C319.70769531 109.58191406 318.99742187 109.59351562 318.265625 109.60546875 Z M-140.734375 111.60546875 C-147.44870512 118.8022657 -150.42602119 127.20738547 -150.0859375 137.0234375 C-149.0377435 144.72184009 -146.12635842 151.06370801 -140.734375 156.60546875 C-140.734375 153.44004271 -141.21000674 152.37840776 -142.671875 149.66796875 C-146.8463612 141.90252669 -147.2122234 132.04058893 -144.91015625 123.57421875 C-143.94408982 121.18957894 -142.88113927 118.90736783 -141.734375 116.60546875 C-141.0556197 114.94368854 -140.38583554 113.27813769 -139.734375 111.60546875 C-140.064375 111.60546875 -140.394375 111.60546875 -140.734375 111.60546875 Z M128.265625 115.60546875 C125.28906331 121.00560704 124.7985726 125.50955409 124.890625 131.60546875 C124.87902344 132.37375 124.86742187 133.14203125 124.85546875 133.93359375 C124.88241334 139.21473352 125.81320456 142.91648883 128.265625 147.60546875 C132.14399085 151.35872603 136.15299176 151.75388193 141.390625 151.79296875 C142.25945312 151.80714844 143.12828125 151.82132813 144.0234375 151.8359375 C146.46892226 151.8229048 146.46892226 151.8229048 148.265625 149.60546875 C143.315625 149.60546875 138.365625 149.60546875 133.265625 149.60546875 C133.265625 140.36546875 133.265625 131.12546875 133.265625 121.60546875 C139.865625 121.60546875 146.465625 121.60546875 153.265625 121.60546875 C152.9230768 115.88135308 152.9230768 115.88135308 150.390625 113.79296875 C143.58113324 109.98766453 134.2209643 110.22949504 128.265625 115.60546875 Z M43.265625 128.60546875 C41.780625 134.05046875 41.780625 134.05046875 40.265625 139.60546875 C42.575625 139.60546875 44.885625 139.60546875 47.265625 139.60546875 C46.275625 135.97546875 45.285625 132.34546875 44.265625 128.60546875 C43.935625 128.60546875 43.605625 128.60546875 43.265625 128.60546875 Z M233.265625 128.60546875 C232.605625 131.90546875 231.945625 135.20546875 231.265625 138.60546875 C233.245625 138.60546875 235.225625 138.60546875 237.265625 138.60546875 C236.98435079 137.12429074 236.69028768 135.64553626 236.390625 134.16796875 C236.14699219 132.93240234 236.14699219 132.93240234 235.8984375 131.671875 C235.68960937 130.98996094 235.48078125 130.30804688 235.265625 129.60546875 C234.605625 129.27546875 233.945625 128.94546875 233.265625 128.60546875 Z M313.265625 146.60546875 C313.37869197 148.56441236 313.37869197 148.56441236 314.265625 150.60546875 C318.17174685 152.90318749 321.81580706 152.92909187 326.265625 152.60546875 C328.43369097 151.64431957 328.43369097 151.64431957 330.265625 150.60546875 C324.57163606 148.50976449 319.31363571 147.15528791 313.265625 146.60546875 Z M94.265625 164.60546875 C94.265625 165.26546875 94.265625 165.92546875 94.265625 166.60546875 C94.925625 166.27546875 95.585625 165.94546875 96.265625 165.60546875 C95.605625 165.27546875 94.945625 164.94546875 94.265625 164.60546875 Z M-60.734375 181.60546875 C-60.7840768 187.706938 -60.82023693 193.80828752 -60.84423828 199.90991211 C-60.85425168 201.98252416 -60.86786635 204.05512224 -60.88525391 206.12768555 C-60.90970813 209.11901309 -60.920905 212.11015269 -60.9296875 215.1015625 C-60.94001007 216.01755722 -60.95033264 216.93355194 -60.96096802 217.87730408 C-60.96224765 225.33366134 -60.46322884 232.8663382 -56.109375 239.16796875 C-55.66335937 239.82925781 -55.21734375 240.49054688 -54.7578125 241.171875 C-54.42007813 241.64496094 -54.08234375 242.11804688 -53.734375 242.60546875 C-53.404375 241.94546875 -53.074375 241.28546875 -52.734375 240.60546875 C-53.49988729 238.53520817 -53.49988729 238.53520817 -54.63378906 236.21142578 C-57.06627098 230.36962305 -57.33619967 225.17959516 -57.34375 218.91015625 C-57.36028625 217.83669952 -57.37682251 216.7632428 -57.39385986 215.65725708 C-57.44202615 212.26493428 -57.46364143 208.87305873 -57.484375 205.48046875 C-57.51256084 203.16534246 -57.54249188 200.85023672 -57.57421875 198.53515625 C-57.64777637 192.89200745 -57.69960194 187.2489828 -57.734375 181.60546875 C-58.724375 181.60546875 -59.714375 181.60546875 -60.734375 181.60546875 Z M-52.734375 242.60546875 C-52.404375 243.59546875 -52.074375 244.58546875 -51.734375 245.60546875 C-51.734375 244.61546875 -51.734375 243.62546875 -51.734375 242.60546875 C-52.064375 242.60546875 -52.394375 242.60546875 -52.734375 242.60546875 Z " fill="#ACACAC" transform="translate(171.734375,8.39453125)"/>
<path d="M0 0 C0.79277344 0.37253906 1.58554687 0.74507813 2.40234375 1.12890625 C9.75414697 5.17874795 15.81199644 11.97124 18.625 19.8828125 C19.15548235 22.87782742 19 25.95836789 19 29 C9.76 29 0.52 29 -9 29 C-9.99 25.04 -9.99 25.04 -11 21 C-13.35346742 19.44150449 -13.35346742 19.44150449 -16 19 C-16.99 18.67 -17.98 18.34 -19 18 C-21.43362472 17.82758292 -23.87320596 17.73334232 -26.3125 17.6875 C-27.60800781 17.65011719 -28.90351563 17.61273438 -30.23828125 17.57421875 C-35.35151258 18.15297494 -38.08290444 19.80148711 -41.46191406 23.67651367 C-45.36938618 29.11332773 -45.73639723 33.9483045 -45.5625 40.5 C-45.57345703 41.39847656 -45.58441406 42.29695313 -45.59570312 43.22265625 C-45.52662366 49.55033549 -44.10811421 53.51291169 -41 59 C-41 59.66 -41 60.32 -41 61 C-33.43937733 64.92032287 -26.84527453 66.46131863 -18.390625 64.34765625 C-14.97683381 63.05723323 -14.97683381 63.05723323 -12 61 C-10.515 57.535 -10.515 57.535 -9 54 C-15.6 54 -22.2 54 -29 54 C-29 48.06 -29 42.12 -29 36 C-13.16 36 2.68 36 19 36 C19.33 51.18 19.66 66.36 20 82 C21.98 76.39 23.96 70.78 26 65 C27.32714879 61.33082394 28.65846718 57.66385015 30 54 C30.6670884 52.16682008 31.33374804 50.33348408 32 48.5 C34.66666667 41.16666667 37.33333333 33.83333333 40 26.5 C40.33128906 25.58863281 40.66257812 24.67726563 41.00390625 23.73828125 C41.65671227 21.9437047 42.31032878 20.14942272 42.96484375 18.35546875 C45.67732514 10.91520856 48.33624911 3.45850248 51 -4 C62.22 -4 73.44 -4 85 -4 C85.99 -1.36 86.98 1.28 88 4 C88.53389084 5.38691246 89.07071268 6.77270927 89.61328125 8.15625 C90.02622437 9.21199219 90.02622437 9.21199219 90.44750977 10.2890625 C90.73295654 11.01867187 91.01840332 11.74828125 91.3125 12.5 C96.09156 24.77490484 100.72369929 37.03948154 104.81835938 49.56152344 C106.56219697 54.83651773 108.56697174 59.93895226 110.765625 65.04296875 C112.2147302 68.51440115 113.53416554 72.02557745 114.8125 75.5625 C115.23144531 76.71878906 115.65039062 77.87507813 116.08203125 79.06640625 C117 82 117 82 117 85 C107.1 85 97.2 85 87 85 C84 77 84 77 84 73 C73.44 73 62.88 73 52 73 C51.67 74.65 51.34 76.3 51 78 C50.34 80.64 49.68 83.28 49 86 C34.15 86 19.3 86 4 86 C3.01 81.545 3.01 81.545 2 77 C1.3709375 77.39832031 0.741875 77.79664063 0.09375 78.20703125 C-13.85158455 86.8388573 -28.43682206 89.21804813 -44.625 86.1875 C-46.09009469 85.81747609 -47.54952764 85.4237335 -49 85 C-49.66773438 84.84015625 -50.33546875 84.6803125 -51.0234375 84.515625 C-58.64180268 82.28732847 -64.69761209 76.60991684 -68.8984375 70.0234375 C-76.239797 55.87789115 -78.11090471 37.39169031 -73.375 22 C-68.84858357 11.21230369 -60.49992132 2.65828946 -49.75 -1.9375 C-34.30739198 -7.96338541 -14.91957871 -7.02212244 0 0 Z M67 38 C66.34 41.3 65.68 44.6 65 48 C66.98 48 68.96 48 71 48 C70.71872579 46.51882199 70.42466268 45.04006751 70.125 43.5625 C69.88136719 42.32693359 69.88136719 42.32693359 69.6328125 41.06640625 C69.42398438 40.38449219 69.21515625 39.70257813 69 39 C68.34 38.67 67.68 38.34 67 38 Z " fill="#FDFDFD" transform="translate(338,99)"/>
<path d="M0 0 C4.04120723 3.68760159 6.94811116 8.28477573 7.875 13.7109375 C7.875 16.0209375 7.875 18.3309375 7.875 20.7109375 C-1.035 20.7109375 -9.945 20.7109375 -19.125 20.7109375 C-19.785 18.7309375 -20.445 16.7509375 -21.125 14.7109375 C-23.4093267 12.29403827 -24.69591547 11.77040302 -28 11.3125 C-29.03125 11.32023437 -30.0625 11.32796875 -31.125 11.3359375 C-32.671875 11.32433594 -32.671875 11.32433594 -34.25 11.3125 C-37.46187129 11.75762347 -38.8678894 12.40546025 -41.125 14.7109375 C-41.45897787 17.83680625 -41.45897787 17.83680625 -41.125 20.7109375 C-36.04319243 22.36445406 -31.02187201 23.80543401 -25.75 24.7109375 C-12.70474967 26.97727336 -0.67208889 29.92521018 8.1875 40.4609375 C11.69657805 47.09237888 10.72220222 56.62318677 9.25 63.7265625 C6.77644583 70.92637194 2.14438634 75.57958501 -4.62109375 78.95703125 C-7.10423928 79.98884058 -9.56273492 80.89549567 -12.125 81.7109375 C-13.18589844 82.06929688 -14.24679687 82.42765625 -15.33984375 82.796875 C-19.85727785 83.8877724 -23.99660046 84.05375842 -28.625 84.0234375 C-29.49995117 84.01924805 -30.37490234 84.01505859 -31.27636719 84.01074219 C-42.10741749 83.82502188 -52.73700035 82.4480484 -62.125 76.7109375 C-63.011875 76.1746875 -63.89875 75.6384375 -64.8125 75.0859375 C-71.28736627 68.43607484 -73.125 60.6887152 -73.125 51.7109375 C-63.885 51.7109375 -54.645 51.7109375 -45.125 51.7109375 C-44.465 54.3509375 -43.805 56.9909375 -43.125 59.7109375 C-39.40175349 62.19310184 -36.4927041 62.00718857 -32.1875 61.9609375 C-31.47142578 61.96867187 -30.75535156 61.97640625 -30.01757812 61.984375 C-26.23530731 61.97035361 -23.33119322 61.82049544 -20.125 59.7109375 C-19.70719121 57.33788172 -19.70719121 57.33788172 -20.125 54.7109375 C-24.2333727 51.51463968 -28.64560157 50.75118742 -33.625 49.7734375 C-58.69624999 44.469367 -58.69624999 44.469367 -67.5625 35.1484375 C-72.26553984 27.81169535 -72.17954505 19.16215068 -71.125 10.7109375 C-68.68566253 3.43480212 -62.58342965 -1.13089345 -55.9375 -4.5390625 C-39.85309551 -12.27988044 -14.37103308 -10.40843205 0 0 Z " fill="#FDFDFD" transform="translate(526.125,102.2890625)"/>
<path d="M0 0 C11.22 0 22.44 0 34 0 C39.52980132 14.37748344 39.52980132 14.37748344 41.5 20.5625 C43.36383258 26.25949768 45.51678356 31.7346922 47.8828125 37.23828125 C49.23842602 40.5893958 50.21212367 43.98272915 51.1953125 47.45703125 C52.09108093 50.28783342 53.2024051 52.95994229 54.375 55.6875 C56.61587993 60.90949046 58.44392707 66.21399042 60.18383789 71.61694336 C61.61038615 75.98975975 63.27699141 80.13805363 65.30078125 84.265625 C66 86 66 86 66 89 C55.77 89 45.54 89 35 89 C34.01 85.04 33.02 81.08 32 77 C21.77 77 11.54 77 1 77 C0.01 80.63 -0.98 84.26 -2 88 C-3 89 -3 89 -5.77563477 89.11352539 C-6.98533936 89.10828857 -8.19504395 89.10305176 -9.44140625 89.09765625 C-10.74658203 89.09443359 -12.05175781 89.09121094 -13.39648438 89.08789062 C-14.7851569 89.07953401 -16.17382877 89.07106905 -17.5625 89.0625 C-18.95507656 89.05748666 -20.34765481 89.05292347 -21.74023438 89.04882812 C-25.1601987 89.03699434 -28.58007844 89.0205088 -32 89 C-29.83716491 80.2613188 -26.97708025 71.85283334 -23.58203125 63.51953125 C-20.98816958 57.14437406 -18.51669253 50.81918059 -16.640625 44.1875 C-15.83435054 41.4343677 -14.83932747 38.78110395 -13.80859375 36.10546875 C-12.88664298 33.70483366 -12.00353796 31.29186146 -11.125 28.875 C-10.78726563 27.946875 -10.44953125 27.01875 -10.1015625 26.0625 C-9.31596056 23.87841518 -8.54107727 21.69046253 -7.7734375 19.5 C-7.35320312 18.30375 -6.93296875 17.1075 -6.5 15.875 C-6.1184375 14.77929688 -5.736875 13.68359375 -5.34375 12.5546875 C-3.73550124 8.30030851 -1.84720261 4.15620587 0 0 Z M16 41 C14.515 46.445 14.515 46.445 13 52 C15.31 52 17.62 52 20 52 C19.01 48.37 18.02 44.74 17 41 C16.67 41 16.34 41 16 41 Z " fill="#FDFDFD" transform="translate(199,96)"/>
<path d="M0 0 C10.23 0 20.46 0 31 0 C32.051875 3.650625 33.10375 7.30125 34.1875 11.0625 C36.55063263 19.21703349 39.04893842 27.28250267 41.8046875 35.3125 C43.51368614 40.58470496 44.9640979 45.9217132 46.38916016 51.27685547 C47.11740548 54.93387615 47.11740548 54.93387615 49 58 C49.24645264 57.14994385 49.49290527 56.2998877 49.74682617 55.42407227 C51.92632559 47.90797823 54.10801631 40.39252667 56.29272461 32.87794495 C57.4008293 29.06556798 58.50525413 25.25216064 59.60546875 21.4375 C60.02851809 19.97912961 60.45168044 18.52079198 60.875 17.0625 C61.39707031 15.25458984 61.39707031 15.25458984 61.9296875 13.41015625 C63.35932886 8.85513105 64.86150981 4.27698039 67 0 C76.24 0 85.48 0 95 0 C94.23646274 6.10829807 93.56192085 9.73189263 91.375 15.1875 C88.49505709 22.53161993 85.96533987 29.96087757 83.53662109 37.46557617 C81.84997719 42.62674643 79.98550128 47.6649588 77.90283203 52.68017578 C76.96422023 55.091936 76.21261773 57.51289992 75.5 60 C74.53078982 63.36866025 73.40655205 66.57526957 72.0625 69.8125 C69.95268884 74.90850541 68.3813246 80.12033793 66.83203125 85.41015625 C66 88 66 88 65 89 C62.47905924 89.08847743 59.98569107 89.11527301 57.46484375 89.09765625 C56.33496788 89.09553383 56.33496788 89.09553383 55.18226624 89.09336853 C52.7673044 89.08775376 50.35243399 89.07519883 47.9375 89.0625 C46.30403779 89.0574869 44.67057414 89.05292366 43.03710938 89.04882812 C39.02470415 89.03777954 35.01236759 89.02050506 31 89 C30.68248779 88.07251953 30.36497559 87.14503906 30.0378418 86.18945312 C28.8480907 82.71509424 27.65680886 79.24126178 26.46508789 75.76757812 C25.95165585 74.27032324 25.43862695 72.77293004 24.92602539 71.27539062 C24.18484363 69.11030271 23.44216441 66.94573318 22.69921875 64.78125 C22.47409103 64.12257935 22.24896332 63.46390869 22.01701355 62.78527832 C20.42637606 58.15757211 18.73017202 53.57740853 17 49 C15.54983409 44.99638581 14.12442644 40.98410014 12.70019531 36.97119141 C11.98692338 34.96318667 11.27081798 32.95620556 10.5546875 30.94921875 C6.89925575 20.67650591 3.42363528 10.35242096 0 0 Z " fill="#FDFDFD" transform="translate(76,96)"/>
<path d="M0 0 C0.66 0.33 1.32 0.66 2 1 C4.54615009 1.23172827 7.07396225 1.41894529 9.625 1.5625 C10.33140625 1.60568359 11.0378125 1.64886719 11.765625 1.69335938 C13.51018537 1.79944751 15.25506697 1.90022889 17 2 C15.64939204 7.57812068 14.12598607 12.92744553 11.8125 18.1875 C9.14621917 24.3336398 7.08013664 30.63434498 5 37 C2.59638077 44.34685858 0.15542612 51.56719032 -2.9921875 58.6328125 C-4.15972037 61.37515715 -5.08748645 64.16380922 -6 67 C-7.32 67 -8.64 67 -10 67 C-9.98667633 67.77514954 -9.97335266 68.55029907 -9.95962524 69.34893799 C-9.83871627 76.70319101 -9.74770914 84.05695294 -9.68912697 91.41194534 C-9.65799483 95.19205852 -9.61586326 98.97134121 -9.54736328 102.75097656 C-9.48151049 106.40800722 -9.44615826 110.06424622 -9.43073654 113.72182465 C-9.41976656 115.10757643 -9.39834859 116.4932916 -9.36561966 117.87870026 C-9.10472144 129.39491984 -11.49953779 138.39389516 -19.4375 147 C-23.67507796 150.80916349 -27.60183496 153.64471629 -33.375 154.5 C-39.97186993 153.59008691 -45.10238476 151.34968547 -49.75 146.5 C-59.73318229 133.30089446 -58.60788376 120.14944889 -58.3125 104.25 C-58.28738352 101.89585704 -58.26457629 99.54168825 -58.24414062 97.1875 C-58.19369755 91.45716725 -58.09579158 85.73046509 -58 80 C-48.1 80 -38.2 80 -28 80 C-27.34 77.03 -26.68 74.06 -26 71 C-25.06429138 68.0964362 -24.10353787 65.2385097 -23.0625 62.375 C-22.81048828 61.6634375 -22.55847656 60.951875 -22.29882812 60.21875 C-21.14160469 56.9868114 -19.92643561 53.83138133 -18.55249023 50.68212891 C-17.06567434 47.15576354 -15.81326391 43.63656605 -14.625 40 C-14.41439941 39.360625 -14.20379883 38.72125 -13.98681641 38.0625 C-13.32157946 36.04262562 -12.66027922 34.02150001 -12 32 C-11.12859956 29.33213472 -10.25303762 26.66568728 -9.375 24 C-8.99085938 22.824375 -8.60671875 21.64875 -8.2109375 20.4375 C-6.95452739 16.87091646 -5.51267948 13.46421953 -4 10 C-3.43521785 8.38288872 -2.88945505 6.75881877 -2.375 5.125 C-1.10891089 1.10891089 -1.10891089 1.10891089 0 0 Z " fill="#024AAB" transform="translate(172,109)"/>
<path d="M0 0 C6.99528228 4.97532674 13.44008919 11.47300844 15.890625 19.87109375 C16.28521693 23.60475251 16.24088092 27.30378445 16.18359375 31.0546875 C16.17934891 32.11019302 16.17510406 33.16569855 16.17073059 34.25318909 C16.15401549 37.60525646 16.11637588 40.95670985 16.078125 44.30859375 C16.06306893 46.58918399 16.04938214 48.86978371 16.03710938 51.15039062 C16.00669473 56.72438187 15.94795797 62.29705522 15.890625 67.87109375 C8.300625 67.87109375 0.710625 67.87109375 -7.109375 67.87109375 C-7.769375 71.50109375 -8.429375 75.13109375 -9.109375 78.87109375 C-10.17963043 82.487819 -11.28549801 86.04947279 -12.484375 89.62109375 C-15.05707803 97.44720437 -17.35515252 105.25741949 -19.28515625 113.265625 C-19.55714844 114.12542969 -19.82914063 114.98523438 -20.109375 115.87109375 C-21.099375 116.36609375 -21.099375 116.36609375 -22.109375 116.87109375 C-23.02668182 113.97546189 -23.94322647 111.0795921 -24.859375 108.18359375 C-25.11203125 107.38630859 -25.3646875 106.58902344 -25.625 105.76757812 C-26.14806722 104.11337805 -26.66537898 102.45734759 -27.17706299 100.79959106 C-27.79456725 98.85994044 -28.44598789 96.93073738 -29.13201904 95.01425171 C-32.01934129 86.59475427 -32.69669126 79.03219205 -32.640625 70.171875 C-32.64333019 68.80193305 -32.64722105 67.43199299 -32.65222168 66.0620575 C-32.6580628 63.21558024 -32.64972726 60.36961079 -32.63085938 57.52319336 C-32.60800616 53.90218372 -32.62126587 50.28235641 -32.64514923 46.66138935 C-32.65969922 43.84121508 -32.65496075 41.02131497 -32.64463806 38.20113182 C-32.64073217 36.22606496 -32.65272257 34.25098675 -32.66516113 32.2759552 C-32.55485614 21.61526799 -30.2142849 12.08048866 -22.51171875 4.24609375 C-15.97892913 -1.72674247 -8.27495612 -4.42863392 0 0 Z " fill="#024AAC" transform="translate(146.109375,24.12890625)"/>
<path d="M0 0 C1.05904289 0.00212242 1.05904289 0.00212242 2.13948059 0.00428772 C4.39120751 0.00987861 6.64283446 0.02242937 8.89453125 0.03515625 C10.4225246 0.04017243 11.95051952 0.04473513 13.47851562 0.04882812 C17.2213926 0.05984505 20.96419498 0.07710338 24.70703125 0.09765625 C26.50940475 4.87291019 28.26817537 9.65584899 29.95703125 14.47265625 C31.89717831 19.93295037 33.95661081 25.33216552 36.08203125 30.72265625 C38.72482014 37.45141767 41.23585228 44.21900219 43.64453125 51.03515625 C43.95116699 51.89383301 44.25780273 52.75250977 44.57373047 53.63720703 C44.85361816 54.43755371 45.13350586 55.23790039 45.421875 56.0625 C45.6705835 56.77011475 45.91929199 57.47772949 46.17553711 58.20678711 C46.70703125 60.09765625 46.70703125 60.09765625 46.70703125 63.09765625 C38.9841138 63.17379542 31.26129337 63.22629383 23.53808594 63.26245117 C20.91142154 63.27752645 18.28478226 63.29798991 15.65820312 63.32397461 C11.88014521 63.36041201 8.10242048 63.37739563 4.32421875 63.390625 C3.1521286 63.40610886 1.98003845 63.42159271 0.77243042 63.43754578 C-6.26998887 63.43899556 -11.0703149 63.00492583 -16.48828125 58.1171875 C-24.95223205 48.43675794 -27.8220475 40.80702027 -27.5703125 27.9296875 C-26.95285456 19.39833208 -23.10479806 12.29510456 -17.29296875 6.09765625 C-11.6998707 1.31377239 -7.23457188 -0.05455214 0 0 Z " fill="#024AAB" transform="translate(52.29296875,110.90234375)"/>
<path d="M0 0 C0.90621094 0.12632813 1.81242188 0.25265625 2.74609375 0.3828125 C3.48988281 0.58648438 4.23367187 0.79015625 5 1 C6.3125 3.5625 6.3125 3.5625 7 6 C5.96875 5.835 4.9375 5.67 3.875 5.5 C-4.77886825 4.45104627 -14.30919499 3.32519695 -22 8 C-22.72703125 8.44085938 -23.4540625 8.88171875 -24.203125 9.3359375 C-31.28287629 14.14172894 -35.32820855 20.79954895 -37.5534668 29.05273438 C-38.20798927 33.3727974 -38.2037415 37.65937467 -38.23828125 42.0234375 C-38.25038887 43.49098984 -38.25038887 43.49098984 -38.26274109 44.9881897 C-38.27655459 47.06095627 -38.28728893 49.13374533 -38.29516602 51.20654297 C-38.30662444 53.30101307 -38.32697738 55.39545541 -38.35668945 57.48974609 C-38.53416401 70.01607865 -38.15128154 81.10010605 -34 93 C-32.73547387 96.68476326 -31.72237969 99.71672667 -31.75 103.625 C-31.74226563 104.72714844 -31.74226563 104.72714844 -31.734375 105.8515625 C-32.03280865 108.26536409 -32.873946 109.86362844 -34 112 C-43 82.28384279 -43 82.28384279 -43 78 C-52.9 78.33 -62.8 78.66 -73 79 C-71.7625 82.75375 -70.525 86.5075 -69.25 90.375 C-68.67813965 92.11789307 -68.67813965 92.11789307 -68.09472656 93.89599609 C-66.22375494 99.53859373 -64.20585497 105.06850452 -61.95556641 110.56982422 C-60.30209804 114.77488915 -58.94869768 119.0760778 -57.5625 123.375 C-55.70628946 129.0510157 -53.83500301 134.64941249 -51.4375 140.125 C-49.15832651 145.35190453 -47.40281453 150.69308659 -45.6875 156.125 C-45.4205835 156.96820801 -45.15366699 157.81141602 -44.87866211 158.68017578 C-43 164.73220015 -43 164.73220015 -43 167 C-31.78 166.67 -20.56 166.34 -9 166 C-6.82903957 159.12086708 -6.82903957 159.12086708 -4.6628418 152.24023438 C-2.92563051 146.75803049 -1.04919691 141.37268435 1 136 C1.67863055 134.0040278 2.34641919 132.00431449 3 130 C4.30752213 125.99026547 5.72324759 122.04071586 7.21484375 118.09716797 C8.5233279 114.60218076 9.76150943 111.08277918 11 107.5625 C11.26055176 106.82330322 11.52110352 106.08410645 11.78955078 105.32250977 C13.57914623 100.23184378 15.32156598 95.12854839 17 90 C17.99 90 18.98 90 20 90 C19.70629596 98.2197036 17.8948013 104.91270064 14.8125 112.5 C11.85127816 120.06214309 9.05678581 127.60574632 6.6875 135.375 C5.02654703 140.7965907 3.28237105 146.08208565 1.078125 151.3125 C-1.517057 157.78164935 -3.70304283 164.42234992 -6 171 C-22.335 171.495 -22.335 171.495 -39 172 C-38.90269849 178.10182893 -38.79973963 184.20303605 -38.68261719 190.30444336 C-38.64450312 192.37697673 -38.60962067 194.44957229 -38.578125 196.5222168 C-38.53209059 199.51373415 -38.47416187 202.50482977 -38.4140625 205.49609375 C-38.40251129 206.41208847 -38.39096008 207.32808319 -38.37905884 208.27183533 C-38.12944266 219.32990796 -36.03669085 229.14689367 -27.81640625 237.1171875 C-20.1658152 243.33571176 -13.47246512 244.29364385 -3.92578125 244.56640625 C1.79776213 244.79776213 1.79776213 244.79776213 4 247 C-3.17738257 250.39121112 -11.83691085 250.1136622 -19.40234375 248.08984375 C-29.38069184 244.17651934 -35.95882544 238.46725048 -41 229 C-43.71130534 221.63342686 -44.42005214 214.65562134 -44.29296875 206.86328125 C-44.28872391 205.85782761 -44.28447906 204.85237396 -44.28010559 203.81645203 C-44.26349646 200.64817954 -44.22587897 197.48057575 -44.1875 194.3125 C-44.17243016 192.14649365 -44.15874581 189.98047719 -44.14648438 187.81445312 C-44.1136516 182.54274588 -44.06363395 177.27142073 -44 172 C-44.66 172 -45.32 172 -46 172 C-46.50615298 170.73160474 -47.00469099 169.46016898 -47.5 168.1875 C-47.7784375 167.47980469 -48.056875 166.77210938 -48.34375 166.04296875 C-49 164 -49 164 -49 161 C-49.61228455 161.00666183 -50.22456909 161.01332367 -50.85540771 161.02018738 C-57.2803416 161.08702544 -63.70517526 161.13199992 -70.13037109 161.16479492 C-72.52201353 161.17979713 -74.91362885 161.20020547 -77.30517578 161.22631836 C-80.76081064 161.26308043 -84.21607892 161.27981264 -87.671875 161.29296875 C-88.72550232 161.30845261 -89.77912964 161.32393646 -90.86468506 161.33988953 C-103.30403015 161.34265252 -113.77629129 158.79372604 -122.96875 150.1484375 C-130.64506201 141.9842243 -133.35924581 132.95131269 -133.2109375 121.90234375 C-132.48665185 111.93670966 -127.98834069 103.39520077 -120.625 96.6875 C-113.70774174 91.16596347 -107.03608884 88.95286238 -98.265625 88.68359375 C-96.97011719 88.64169922 -95.67460938 88.59980469 -94.33984375 88.55664062 C-92.97656524 88.51683329 -91.61328394 88.47712094 -90.25 88.4375 C-88.87108125 88.39427726 -87.49217474 88.35066179 -86.11328125 88.30664062 C-82.7422881 88.20056042 -79.37122174 88.0985015 -76 88 C-76.28875 87.25234375 -76.5775 86.5046875 -76.875 85.734375 C-77.24625 84.74953125 -77.6175 83.7646875 -78 82.75 C-78.37125 81.77546875 -78.7425 80.8009375 -79.125 79.796875 C-80 77 -80 77 -80 73 C-68.12 73 -56.24 73 -44 73 C-44.02320312 70.07253906 -44.04640625 67.14507812 -44.0703125 64.12890625 C-44.08594455 61.26929151 -44.09806904 58.40968167 -44.10986328 55.55004883 C-44.1198729 53.57444094 -44.13348469 51.59884769 -44.15087891 49.62329102 C-44.17535009 46.77095918 -44.18653376 43.91882453 -44.1953125 41.06640625 C-44.20563507 40.19415909 -44.21595764 39.32191193 -44.22659302 38.42323303 C-44.22868478 26.78903838 -41.26241134 17.82659255 -33.265625 9.109375 C-23.59381122 0.32488358 -12.66754887 -1.90013233 0 0 Z M-121.58203125 104.66015625 C-126.65321185 111.14084928 -128.65897495 119.28545932 -128.33984375 127.4296875 C-126.97404432 137.75952683 -121.9440142 145.07024219 -114.03125 151.6328125 C-109.46929428 155.01561865 -106.20287269 156.12632236 -100.6105957 156.11352539 C-98.95922356 156.11341209 -98.95922356 156.11341209 -97.27449036 156.11329651 C-96.08691635 156.10813522 -94.89934235 156.10297394 -93.67578125 156.09765625 C-92.45924362 156.0962413 -91.24270599 156.09482635 -89.98930359 156.09336853 C-86.0970109 156.08776312 -82.20477536 156.07520967 -78.3125 156.0625 C-75.67643312 156.0574857 -73.04036534 156.05292267 -70.40429688 156.04882812 C-63.93617836 156.03779193 -57.46809326 156.0210485 -51 156 C-52.11068669 150.61678494 -53.40153424 145.45609946 -55.27734375 140.27734375 C-55.70853516 139.07916016 -56.13972656 137.88097656 -56.58398438 136.64648438 C-57.03064453 135.42251953 -57.47730469 134.19855469 -57.9375 132.9375 C-58.38029297 131.70966797 -58.82308594 130.48183594 -59.27929688 129.21679688 C-63.49115044 117.55206172 -63.49115044 117.55206172 -68 106 C-69.74539025 101.69470405 -71.37698123 97.35264124 -73 93 C-77.44739413 92.92550749 -81.8944519 92.87123743 -86.34228516 92.83520508 C-87.85341727 92.82017457 -89.36450618 92.79974436 -90.87548828 92.77368164 C-93.05512187 92.73704311 -95.23417575 92.72021662 -97.4140625 92.70703125 C-98.7232666 92.6913208 -100.0324707 92.67561035 -101.38134766 92.65942383 C-109.35005993 93.40941395 -116.18270917 98.99420098 -121.58203125 104.66015625 Z " fill="#AAAAAC" transform="translate(150,18)"/>
<path d="M0 0 C7.73678143 0.39675802 13.66909891 5.30859069 18.8125 10.75 C26.00511793 19.78777066 26.56624667 28.73770896 26.390625 39.9765625 C26.38314752 41.39715776 26.37746173 42.81776346 26.37347412 44.2383728 C26.35833587 47.94408577 26.31915982 51.64915314 26.2746582 55.35461426 C26.23344726 59.14908113 26.2154085 62.94365421 26.1953125 66.73828125 C26.15265085 74.15914576 26.08454738 81.57948179 26 89 C28.64 89.33 31.28 89.66 34 90 C34 90.33 34 90.66 34 91 C31.54159395 91.02691685 29.08348118 91.04679802 26.625 91.0625 C25.92632812 91.07087891 25.22765625 91.07925781 24.5078125 91.08789062 C19.2265625 91.11328125 19.2265625 91.11328125 17 90 C16.34 91.65 15.68 93.3 15 95 C14.06576355 91.98968256 13.95550089 91.13349732 15 88 C14.01 87.505 14.01 87.505 13 87 C13.99 83.37 14.98 79.74 16 76 C6.76 76 -2.48 76 -12 76 C-13.78634351 81.95447838 -15.56663616 87.9088546 -17.3125 93.875 C-19.47105295 101.24016324 -21.67618452 108.5907623 -23.90063477 115.9362793 C-25.52446919 121.32520417 -27.03206214 126.72830741 -28.359375 132.19921875 C-29 134 -29 134 -31 135 C-31.79359736 132.6464689 -32.58491783 130.29221117 -33.375 127.9375 C-33.59671875 127.28072266 -33.8184375 126.62394531 -34.046875 125.94726562 C-39.57918551 109.43169159 -39.57918551 109.43169159 -36.984375 103.79296875 C-36.65953125 103.20128906 -36.3346875 102.60960938 -36 102 C-34 108 -32 114 -30 120 C-29.72027344 118.95585937 -29.44054687 117.91171875 -29.15234375 116.8359375 C-26.48713494 107.01031421 -23.56998275 97.29370426 -20.41186523 87.61474609 C-20.12770752 86.73898926 -19.8435498 85.86323242 -19.55078125 84.9609375 C-19.29981689 84.19571777 -19.04885254 83.43049805 -18.7902832 82.64208984 C-17.73936095 79.12862656 -16.88944338 75.55777351 -16 72 C-8.41 72 -0.82 72 7 72 C6.97182545 65.34568353 6.92852775 58.6949063 6.84741211 52.04150391 C6.82432106 49.78181087 6.80985744 47.52201156 6.80444336 45.26220703 C6.7950889 41.99965873 6.75395464 38.73876154 6.70703125 35.4765625 C6.7109639 34.47823395 6.71489655 33.4799054 6.71894836 32.45132446 C6.53711822 23.56266897 3.68348905 16.71023654 -2.3125 10.125 C-5.84502044 6.8336869 -9.59619346 4.9314941 -14 3 C-14 2.67 -14 2.34 -14 2 C-8.21101581 1.79325056 -3.57067277 2.40837921 2 4 C1.34 2.68 0.68 1.36 0 0 Z " fill="#A3A9AD" transform="translate(155,20)"/>
<path d="M0 0 C1.26328125 0.02707031 2.5265625 0.05414063 3.828125 0.08203125 C4.79234375 0.11683594 5.7565625 0.15164062 6.75 0.1875 C7.72016205 3.09798615 7.89265994 5.01882761 7.92700195 8.05102539 C7.94625481 9.53385765 7.94625481 9.53385765 7.96589661 11.04664612 C7.97328354 12.11535446 7.98067047 13.18406281 7.98828125 14.28515625 C7.996353 15.38919296 8.00442474 16.49322968 8.01274109 17.63072205 C8.02658175 19.97181631 8.03730398 22.31293076 8.04516602 24.65405273 C8.06231597 28.21182328 8.10619626 31.76864932 8.15039062 35.32617188 C8.16052339 37.60415985 8.16903766 39.88215572 8.17578125 42.16015625 C8.19328934 43.21469498 8.21079742 44.2692337 8.22883606 45.35572815 C8.19922534 55.5845743 5.2901585 63.73026442 -1.87109375 71.12890625 C-7.32208051 75.8459342 -12.91991314 79.56705753 -20.35546875 79.10546875 C-24.03589337 78.69749004 -27.63839963 78.00652413 -31.25 77.1875 C-29.36761796 75.21072122 -27.79330673 73.9033353 -25.4375 72.4375 C-18.85546159 67.79135524 -14.66991153 61.87761308 -12.25 54.1875 C-11.73126776 50.20096306 -11.73835615 46.27338679 -11.78125 42.2578125 C-11.77067566 40.58958939 -11.77067566 40.58958939 -11.7598877 38.88766479 C-11.73795972 35.36237154 -11.74084202 31.8378411 -11.75 28.3125 C-11.7620088 23.64802735 -11.74846938 18.98468501 -11.71875 14.3203125 C-11.73006958 13.2484671 -11.74138916 12.1766217 -11.75305176 11.07229614 C-11.7462439 10.08051361 -11.73943604 9.08873108 -11.73242188 8.06689453 C-11.73560425 7.19469269 -11.73878662 6.32249084 -11.74206543 5.42385864 C-11.25 3.1875 -11.25 3.1875 -9.43566895 1.40084839 C-6.25421875 -0.36529624 -3.60302294 -0.10008397 0 0 Z " fill="#38B2F9" transform="translate(173.25,185.8125)"/>
<path d="M0 0 C1.32451172 0.01353516 1.32451172 0.01353516 2.67578125 0.02734375 C3.67158203 0.04474609 3.67158203 0.04474609 4.6875 0.0625 C5.25 2 5.25 2 5.6875 4.0625 C3.86270572 5.88729428 0.84030327 5.54306795 -1.625 5.8125 C-15.07369228 7.68492972 -26.40173665 13.4488407 -34.97265625 24.1328125 C-43.60244403 36.56171968 -45.84028217 50.26459728 -43.25 64.9375 C-40.20832519 78.01385898 -32.67744786 88.18072978 -21.4375 95.375 C-13.07127629 100.46178062 -4.25389832 101.50835395 5.34765625 101.5390625 C6.4187413 101.55464203 7.48982635 101.57022156 8.59336853 101.58627319 C11.97890612 101.63341627 15.36424016 101.66145755 18.75 101.6875 C22.16775417 101.72398421 25.58539257 101.76449582 29.0030365 101.81015015 C31.12191442 101.83740421 33.24087805 101.8587435 35.35987854 101.87368774 C36.78287514 101.88908096 36.78287514 101.88908096 38.23461914 101.90478516 C39.49176476 101.91452866 39.49176476 101.91452866 40.77430725 101.92446899 C42.6875 102.0625 42.6875 102.0625 43.6875 103.0625 C43.75994053 105.08214199 43.77127188 107.10417124 43.75 109.125 C43.74097656 110.22972656 43.73195313 111.33445312 43.72265625 112.47265625 C43.71105469 113.32730469 43.69945313 114.18195313 43.6875 115.0625 C42.3675 115.3925 41.0475 115.7225 39.6875 116.0625 C38.2091774 113.10585481 38.62717217 110.32020263 38.6875 107.0625 C37.96908936 107.09802979 37.25067871 107.13355957 36.51049805 107.17016602 C-15.75520651 109.66694862 -15.75520651 109.66694862 -33.81640625 93.65234375 C-47.06061802 79.57820748 -49.90002769 65.89415115 -49.65234375 47.3125 C-49.1602267 33.55772626 -42.1368122 22.03157408 -32.25 12.65234375 C-23.23461948 5.25464239 -11.77879947 -0.15705066 0 0 Z " fill="#ADADAD" transform="translate(49.3125,88.9375)"/>
<path d="M0 0 C7.07147628 2.41881482 13.91476718 5.1351752 18.07592773 11.6965332 C19.28777896 14.71735653 19.2083238 17.16631367 19.16015625 20.41796875 C19.14919922 21.67287109 19.13824219 22.92777344 19.12695312 24.22070312 C19.10568359 25.52974609 19.08441406 26.83878906 19.0625 28.1875 C18.8453854 38.2316764 18.8453854 38.2316764 19.5390625 48.23828125 C20.00063018 52.00514293 20.07769423 53.83398974 18 57 C15.91796875 57.625 15.91796875 57.625 14 58 C9.67921425 49.46921787 6.48752859 40.83675964 3.55004883 31.75683594 C1.56469366 25.62945664 -0.60599319 19.65097683 -3.0546875 13.69140625 C-4.06874475 10.80427631 -4.58104328 8.02629374 -5 5 C-3.35 4.34 -1.7 3.68 0 3 C0 2.01 0 1.02 0 0 Z " fill="#A4A9AC" transform="translate(245,109)"/>
<path d="M0 0 C0.68050415 -0.00095673 1.3610083 -0.00191345 2.06213379 -0.00289917 C3.50122164 -0.00357981 4.94031257 -0.00173357 6.37939453 0.00244141 C8.58503093 0.00779135 10.7904637 0.00249259 12.99609375 -0.00390625 C14.39322962 -0.00324545 15.79036536 -0.00196424 17.1875 0 C19.10079102 0.00169189 19.10079102 0.00169189 21.05273438 0.00341797 C24.09375 0.1328125 24.09375 0.1328125 26.09375 1.1328125 C25.76375 2.4528125 25.43375 3.7728125 25.09375 5.1328125 C15.85375 5.4628125 6.61375 5.7928125 -2.90625 6.1328125 C-2.94492188 10.56267578 -2.94492188 10.56267578 -2.984375 15.08203125 C-3.02293467 17.98487333 -3.06804971 20.88754606 -3.11376953 23.7902832 C-3.14176236 25.78694388 -3.16308318 27.78371091 -3.17724609 29.78051758 C-3.31776766 48.48393753 -5.59750878 64.45062754 -18.78125 78.8203125 C-27.51372225 87.15856918 -39.67966905 93.5258006 -51.875 94.328125 C-53.12796875 94.29332031 -53.12796875 94.29332031 -54.40625 94.2578125 C-55.2621875 94.23976563 -56.118125 94.22171875 -57 94.203125 C-57.6290625 94.17992187 -58.258125 94.15671875 -58.90625 94.1328125 C-59.46875 92.1953125 -59.46875 92.1953125 -59.90625 90.1328125 C-58.08145572 88.30801822 -55.05905327 88.65224455 -52.59375 88.3828125 C-38.49426497 86.43212078 -27.92471604 80.3546324 -18.73046875 69.625 C-11.54518817 59.80870662 -9.63098422 48.92720662 -9.4921875 37.0703125 C-9.47282135 36.03841797 -9.4534552 35.00652344 -9.4335022 33.94335938 C-9.37410273 30.67325907 -9.32748027 27.40312281 -9.28125 24.1328125 C-9.24303373 21.90493324 -9.20397991 19.67706818 -9.1640625 17.44921875 C-9.06843415 12.01054345 -8.98327264 6.57178142 -8.90625 1.1328125 C-5.9519943 -0.34431535 -3.29364796 0.00291252 0 0 Z " fill="#ADADAD" transform="translate(198.90625,190.8671875)"/>
<path d="M0 0 C8.64470302 -0.97864563 14.45037705 2.74158891 21.33984375 7.67578125 C27.14989445 12.3822469 30.43632658 17.69150739 32 25 C32.08384385 26.52648786 32.11781972 28.05617824 32.11352539 29.58496094 C32.11344986 30.48559265 32.11337433 31.38622437 32.11329651 32.31414795 C32.10813522 33.27782288 32.10297394 34.2414978 32.09765625 35.234375 C32.0962413 36.22753723 32.09482635 37.22069946 32.09336853 38.24395752 C32.08777588 41.41266912 32.0752247 44.58130979 32.0625 47.75 C32.05748405 49.89973856 32.05292131 52.04947823 32.04882812 54.19921875 C32.03780885 59.46617312 32.02054923 64.73307454 32 70 C28.37 70 24.74 70 21 70 C20.99589111 68.59830566 20.99178223 67.19661133 20.98754883 65.75244141 C20.96565533 60.51509633 20.91125938 55.27849163 20.84741211 50.04150391 C20.82432106 47.78181087 20.80985744 45.52201156 20.80444336 43.26220703 C20.7950889 39.99965873 20.75395464 36.73876154 20.70703125 33.4765625 C20.7109639 32.47823395 20.71489655 31.4799054 20.71894836 30.45132446 C20.53711822 21.56266897 17.68348905 14.71023654 11.6875 8.125 C8.15497956 4.8336869 4.40380654 2.9314941 0 1 C0 0.67 0 0.34 0 0 Z " fill="#3AB2F9" transform="translate(141,22)"/>
<path d="M0 0 C1.27617187 0.02320313 2.55234375 0.04640625 3.8671875 0.0703125 C5.78917969 0.09738281 5.78917969 0.09738281 7.75 0.125 C9.23113281 0.15980469 9.23113281 0.15980469 10.7421875 0.1953125 C11.71234955 3.10579865 11.88484744 5.02664011 11.91918945 8.05883789 C11.93844231 9.54167015 11.93844231 9.54167015 11.95808411 11.05445862 C11.96547104 12.12316696 11.97285797 13.19187531 11.98046875 14.29296875 C11.9885405 15.39700546 11.99661224 16.50104218 12.00492859 17.63853455 C12.01876925 19.97962881 12.02949148 22.32074326 12.03735352 24.66186523 C12.05450347 28.21963578 12.09838376 31.77646182 12.14257812 35.33398438 C12.15271089 37.61197235 12.16122516 39.88996822 12.16796875 42.16796875 C12.18547684 43.22250748 12.20298492 44.2770462 12.22102356 45.36354065 C12.19138041 55.60358959 9.26834474 63.70428237 2.140625 71.13671875 C-2.84029717 75.41187507 -8.48337348 79.29878929 -15.25 79.11328125 C-17.68027973 78.63479841 -19.9349479 78.04839994 -22.2578125 77.1953125 C-20.29231172 76.20382655 -18.3254942 75.22668721 -16.328125 74.30078125 C-6.904422 69.85385313 -2.58935801 64.66263185 1.7421875 55.1953125 C2.6596184 52.16890372 2.89056708 49.39941554 2.94750977 46.24316406 C2.96745499 45.26244934 2.98740021 44.28173462 3.00794983 43.27130127 C3.03301857 41.6945462 3.03301857 41.6945462 3.05859375 40.0859375 C3.07937485 39.00399109 3.10015594 37.92204468 3.12156677 36.80731201 C3.18691681 33.35337637 3.24587979 29.89936513 3.3046875 26.4453125 C3.34788654 24.10285679 3.39150128 21.7604087 3.43554688 19.41796875 C3.54258337 13.67716068 3.64389198 7.93627662 3.7421875 2.1953125 C0.7721875 2.1953125 -2.1978125 2.1953125 -5.2578125 2.1953125 C-3.2578125 0.1953125 -3.2578125 0.1953125 0 0 Z " fill="#95A9B3" transform="translate(169.2578125,185.8046875)"/>
<path d="M0 0 C8.42682388 2.34282876 14.75956259 8.25734246 19.0625 15.8125 C21.54516806 20.66297958 22.12459511 24.69920459 22.11352539 30.14550781 C22.11344986 31.38649231 22.11337433 32.62747681 22.11329651 33.90606689 C22.10819031 35.25508667 22.10297432 36.60410604 22.09765625 37.953125 C22.09579024 39.33746286 22.0943672 40.72180138 22.09336853 42.10614014 C22.08955773 45.74261308 22.07973975 49.37904582 22.06866455 53.01550293 C22.0584195 56.72907976 22.05386429 60.4426631 22.04882812 64.15625 C22.03811616 71.43751829 22.02105704 78.7187535 22 86 C20.68 86 19.36 86 18 86 C17.99635437 85.31698822 17.99270874 84.63397644 17.98895264 83.93026733 C17.9507683 77.42982324 17.89357921 70.92983966 17.81609726 64.429739 C17.77692276 61.08946273 17.74668939 57.74967896 17.72900391 54.40917969 C17.70736126 50.55101647 17.66060072 46.69380836 17.609375 42.8359375 C17.60814636 41.66139008 17.60691772 40.48684265 17.60565186 39.27670288 C17.40068081 27.42533556 15.55444316 16.41548105 6.97265625 7.76953125 C4.7212358 5.74994023 2.38299436 3.86171434 0 2 C0 1.34 0 0.68 0 0 Z " fill="#37B6FC" transform="translate(159,21)"/>
<path d="M0 0 C0.99 0.33 1.98 0.66 3 1 C2.386097 6.62993972 0.96383665 11.65391881 -0.875 17 C-1.13152344 17.76828125 -1.38804687 18.5365625 -1.65234375 19.328125 C-3.23004998 23.98989015 -5.05931794 28.4752012 -7 33 C-7.85841561 35.49149896 -8.69158231 37.99183229 -9.5 40.5 C-10.7073924 44.2460123 -11.94776676 47.87825846 -13.5 51.49609375 C-15.31871955 55.74450895 -16.71639988 60.07772931 -18.10546875 64.48242188 C-19.41385068 68.52840549 -21.0091661 72.24403721 -23 76 C-20.69 76.33 -18.38 76.66 -16 77 C-16 77.33 -16 77.66 -16 78 C-19.96 78 -23.92 78 -28 78 C-27.67 73.71 -27.34 69.42 -27 65 C-25.68 65 -24.36 65 -23 65 C-22.773125 63.783125 -22.54625 62.56625 -22.3125 61.3125 C-21.44922533 57.4223002 -20.23283894 53.84232562 -18.76171875 50.140625 C-16.84979846 45.24385609 -15.02184422 40.33043027 -13.28125 35.37109375 C-13.05314133 34.72231766 -12.82503265 34.07354156 -12.5900116 33.40510559 C-11.65788296 30.74966684 -10.72858278 28.09325584 -9.80224609 25.43579102 C-6.80146811 16.83825717 -3.61615755 8.3628546 0 0 Z " fill="#9DA3AC" transform="translate(189,111)"/>
<path d="M0 0 C1.32 0 2.64 0 4 0 C4.10196962 7.07995205 4.17170349 14.15971257 4.21972656 21.24023438 C4.23976034 23.64557981 4.26699522 26.05087703 4.30175781 28.45605469 C4.35063808 31.92655378 4.37305205 35.39640526 4.390625 38.8671875 C4.41127014 39.93113739 4.43191528 40.99508728 4.45318604 42.09127808 C4.45624108 52.40845788 1.51861882 60.39870759 -5.5625 67.94921875 C-9.87465531 71.57723404 -14.84340065 73.80844528 -20 76 C-20.66 75.34 -21.32 74.68 -22 74 C-21.43152344 73.74347656 -20.86304688 73.48695313 -20.27734375 73.22265625 C-14.44306079 70.32986487 -11.10385681 67.14577831 -7.41015625 61.79296875 C-6.94480469 61.20128906 -6.47945312 60.60960937 -6 60 C-5.34 60 -4.68 60 -4 60 C-0.11684593 47.78058858 -0.44496347 35.37826268 -0.3125 22.6875 C-0.27926873 20.48240231 -0.24477387 18.27732328 -0.20898438 16.07226562 C-0.12475092 10.7149719 -0.05612863 5.35765809 0 0 Z " fill="#3AB5FA" transform="translate(177,189)"/>
<path d="M0 0 C1.07736779 3.26925398 0.91176157 5.22051843 -0.0625 8.5 C-0.34609375 9.47195312 -0.6296875 10.44390625 -0.921875 11.4453125 C-1.27765625 12.61835937 -1.6334375 13.79140625 -2 15 C-2.44313374 16.47643489 -2.88581004 17.95300711 -3.328125 19.4296875 C-4.07751474 21.92991733 -4.82901627 24.42941052 -5.5871582 26.92700195 C-6.99531909 31.57962111 -8.35655056 36.24051836 -9.65234375 40.92578125 C-9.92006592 41.88887207 -10.18778809 42.85196289 -10.46362305 43.84423828 C-10.98088452 45.71447334 -11.4916537 47.58651826 -11.99536133 49.46044922 C-12.22892334 50.30236816 -12.46248535 51.14428711 -12.703125 52.01171875 C-12.90583008 52.75897217 -13.10853516 53.50622559 -13.31738281 54.27612305 C-14 56 -14 56 -16 57 C-16.79359736 54.6464689 -17.58491783 52.29221117 -18.375 49.9375 C-18.59671875 49.28072266 -18.8184375 48.62394531 -19.046875 47.94726562 C-24.57918551 31.43169159 -24.57918551 31.43169159 -21.984375 25.79296875 C-21.65953125 25.20128906 -21.3346875 24.60960938 -21 24 C-19 30 -17 36 -15 42 C-14.72027344 40.95585937 -14.44054687 39.91171875 -14.15234375 38.8359375 C-11.71589921 29.8436562 -9.12709665 20.90086573 -6.375 12 C-5.94175415 10.55826416 -5.94175415 10.55826416 -5.49975586 9.08740234 C-5.2188208 8.19230957 -4.93788574 7.2972168 -4.6484375 6.375 C-4.40270996 5.57835938 -4.15698242 4.78171875 -3.90380859 3.9609375 C-3 2 -3 2 0 0 Z " fill="#A6A8AC" transform="translate(140,98)"/>
<path d="M0 0 C3.49553421 2.69116412 3.98328316 5.89819729 5 10.0625 C5.33716227 11.41310552 5.67570897 12.76336616 6.015625 14.11328125 C6.17998047 14.77408691 6.34433594 15.43489258 6.51367188 16.11572266 C7.37800963 19.46459754 8.43139498 22.75351197 9.484375 26.046875 C10 28 10 28 10 31 C3.73 31 -2.54 31 -9 31 C-6.47707403 20.44108761 -3.59153494 10.24470623 0 0 Z M0 16 C-0.66 19.3 -1.32 22.6 -2 26 C-0.02 26 1.96 26 4 26 C3.71872579 24.51882199 3.42466268 23.04006751 3.125 21.5625 C2.88136719 20.32693359 2.88136719 20.32693359 2.6328125 19.06640625 C2.42398437 18.38449219 2.21515625 17.70257813 2 17 C1.34 16.67 0.68 16.34 0 16 Z " fill="#AEAEAE" transform="translate(405,121)"/>
<path d="M0 0 C1.96670099 2.95005149 2.86971804 5.3018899 3.9453125 8.65625 C4.29980469 9.76097656 4.65429688 10.86570313 5.01953125 12.00390625 C5.38433594 13.15761719 5.74914062 14.31132812 6.125 15.5 C6.49753906 16.65371094 6.87007812 17.80742187 7.25390625 18.99609375 C10 27.61661516 10 27.61661516 10 31 C3.73 31 -2.54 31 -9 31 C-7.32485476 20.78161402 -4.66034912 9.32069824 0 0 Z M0 16 C-1.485 21.445 -1.485 21.445 -3 27 C-0.69 27 1.62 27 4 27 C3.01 23.37 2.02 19.74 1 16 C0.67 16 0.34 16 0 16 Z " fill="#A9ABAE" transform="translate(215,121)"/>
<path d="M0 0 C6.28661788 1.76811128 11.4453766 6.6680649 15 12 C15.31884766 15.09448242 15.31884766 15.09448242 15.4140625 18.85546875 C15.43342865 19.51710526 15.4527948 20.17874176 15.4727478 20.86042786 C15.53242687 22.96932164 15.57888087 25.07827037 15.625 27.1875 C15.66319066 28.61916415 15.70224303 30.05080559 15.7421875 31.48242188 C15.83811773 34.98807312 15.92219197 38.49389445 16 42 C13.3041845 40.65209225 13.25484199 39.46504705 12.265625 36.65234375 C11.94142578 35.74395752 11.61722656 34.83557129 11.28320312 33.8996582 C10.94224609 32.922146 10.60128906 31.94463379 10.25 30.9375 C9.53731111 28.92938464 8.82376204 26.92157437 8.109375 24.9140625 C7.75552734 23.91536133 7.40167969 22.91666016 7.03710938 21.88769531 C5.34462231 17.1751866 3.55149808 12.50073261 1.72753906 7.83764648 C0.66055427 5.05158906 0 3.01608153 0 0 Z " fill="#40B4F6" transform="translate(244,114)"/>
<path d="M0 0 C6.42997825 2.19938894 12.66319876 4.51233241 17 10 C17.4375 12.875 17.4375 12.875 17 15 C16.01 14.67 15.02 14.34 14 14 C13.34 14.66 12.68 15.32 12 16 C11.34 15.29875 10.68 14.5975 10 13.875 C6.65014059 10.50583305 2.84347436 7.77531275 -1 5 C-0.45472656 6.31097656 -0.45472656 6.31097656 0.1015625 7.6484375 C3.10578372 14.96109263 5.8955464 22.3257586 8.4375 29.8125 C8.84379639 30.98594971 8.84379639 30.98594971 9.25830078 32.18310547 C9.89885963 34.1030863 10.45708606 36.05015732 11 38 C10.67 38.66 10.34 39.32 10 40 C9.505 38.515 9.505 38.515 9 37 C8.34 37 7.68 37 7 37 C7 35.35 7 33.7 7 32 C6.01 32 5.02 32 4 32 C-0.39453125 20.28125 -0.39453125 20.28125 -1.18603516 18.14453125 C-1.73597291 16.69562508 -2.30929764 15.25541313 -2.90380859 13.82421875 C-4.43154362 10.074877 -5.26291472 7.86617444 -4 4 C-2.68 3.67 -1.36 3.34 0 3 C0 2.01 0 1.02 0 0 Z " fill="#9DA8AF" transform="translate(245,109)"/>
<path d="M0 0 C8.42682388 2.34282876 14.75956259 8.25734246 19.0625 15.8125 C21.89219679 21.34098234 22.10205658 25.87660517 22 32 C21.67 32 21.34 32 21 32 C20.67 28.37 20.34 24.74 20 21 C19.01 21 18.02 21 17 21 C17.32597168 21.88373291 17.65194336 22.76746582 17.98779297 23.67797852 C19.60901871 29.39301819 19.24553646 35.2618569 19.1953125 41.15234375 C19.1924826 42.40761368 19.18965271 43.66288361 19.18673706 44.95619202 C19.17747127 48.27214347 19.15954299 51.58781301 19.1373291 54.90368652 C19.11676595 58.29579245 19.10771309 61.68792766 19.09765625 65.08007812 C19.07565124 71.72012917 19.04221495 78.36004833 19 85 C20.485 85.495 20.485 85.495 22 86 C20.68 86 19.36 86 18 86 C17.99635437 85.31698822 17.99270874 84.63397644 17.98895264 83.93026733 C17.9507683 77.42982324 17.89357921 70.92983966 17.81609726 64.429739 C17.77692276 61.08946273 17.74668939 57.74967896 17.72900391 54.40917969 C17.70736126 50.55101647 17.66060072 46.69380836 17.609375 42.8359375 C17.60814636 41.66139008 17.60691772 40.48684265 17.60565186 39.27670288 C17.40068081 27.42533556 15.55444316 16.41548105 6.97265625 7.76953125 C4.7212358 5.74994023 2.38299436 3.86171434 0 2 C0 1.34 0 0.68 0 0 Z " fill="#49B4EF" transform="translate(159,21)"/>
<path d="M0 0 C0.33 0 0.66 0 1 0 C1 18.81 1 37.62 1 57 C2.32 57 3.64 57 5 57 C5 57.66 5 58.32 5 59 C7.64 59.33 10.28 59.66 13 60 C13 60.33 13 60.66 13 61 C10.54159395 61.02691685 8.08348118 61.04679802 5.625 61.0625 C4.92632812 61.07087891 4.22765625 61.07925781 3.5078125 61.08789062 C-1.7734375 61.11328125 -1.7734375 61.11328125 -4 60 C-4.99 62.475 -4.99 62.475 -6 65 C-6.93423645 61.98968256 -7.04449911 61.13349732 -6 58 C-6.66 57.67 -7.32 57.34 -8 57 C-7.5991428 55.57877902 -7.17849837 54.16313294 -6.75 52.75 C-6.51796875 51.96109375 -6.2859375 51.1721875 -6.046875 50.359375 C-5 48 -5 48 -2.97265625 46.47851562 C0.09578673 42.62321449 -0.39687842 38.77787909 -0.390625 33.984375 C-0.37408875 33.01340881 -0.35755249 32.04244263 -0.34051514 31.04205322 C-0.29197881 27.94463817 -0.27065143 24.84771427 -0.25 21.75 C-0.22184507 19.64841271 -0.19191832 17.54684836 -0.16015625 15.4453125 C-0.0862181 10.29691542 -0.03667771 5.14879192 0 0 Z " fill="#8FA8B7" transform="translate(176,50)"/>
<path d="M0 0 C0.99 0.33 1.98 0.66 3 1 C2.386097 6.62993972 0.96383665 11.65391881 -0.875 17 C-1.13152344 17.76828125 -1.38804687 18.5365625 -1.65234375 19.328125 C-2.85562736 22.88355596 -4.12208282 26.37431786 -5.62109375 29.81640625 C-6.65698625 32.20805606 -7.52253912 34.43110898 -8.1875 36.9375 C-8.455625 37.948125 -8.72375 38.95875 -9 40 C-9.99 39.67 -10.98 39.34 -12 39 C-12.42583188 32.81291323 -10.95139841 28.08428744 -8.8125 22.3125 C-8.49659912 21.43561523 -8.18069824 20.55873047 -7.85522461 19.65527344 C-5.43989072 13.01631468 -2.85138896 6.46490032 0 0 Z " fill="#A1A6AB" transform="translate(189,111)"/>
<path d="M0 0 C4.30024427 0.47780492 6.13421376 2.93427518 9 6 C10.20750629 7.16752264 11.41587744 8.3341513 12.625 9.5 C17.27174859 14.17698774 19.58035741 18.4933048 21 25 C20.625 27.4375 20.625 27.4375 20 29 C19.67 28.01 19.34 27.02 19 26 C18.34 26.33 17.68 26.66 17 27 C16.78085938 26.35933594 16.56171875 25.71867187 16.3359375 25.05859375 C12.57946039 14.81226798 7.81502964 9.7330254 -2 5 C-0.68 4.67 0.64 4.34 2 4 C1.34 2.68 0.68 1.36 0 0 Z " fill="#94A9B5" transform="translate(155,20)"/>
<path d="M0 0 C1.27939453 -0.01611328 2.55878906 -0.03222656 3.87695312 -0.04882812 C5.71870117 -0.04979492 5.71870117 -0.04979492 7.59765625 -0.05078125 C9.27807007 -0.05525269 9.27807007 -0.05525269 10.99243164 -0.05981445 C14.21574445 0.34767556 15.57803299 1.1390893 17.9375 3.3125 C16.53056885 3.33437378 16.53056885 3.33437378 15.09521484 3.35668945 C11.59480621 3.41796717 8.09515551 3.49215932 4.59521484 3.57495117 C3.08425096 3.60807926 1.57316693 3.63614855 0.06201172 3.65893555 C-2.11803082 3.69270681 -4.29698439 3.74502896 -6.4765625 3.80078125 C-8.44036865 3.84005737 -8.44036865 3.84005737 -10.44384766 3.88012695 C-14.27814288 4.33826599 -16.6966737 5.49148925 -20.0625 7.3125 C-21.0525 7.3125 -22.0425 7.3125 -23.0625 7.3125 C-17.02609927 -1.18317511 -9.64701527 -0.02437346 0 0 Z " fill="#A0A3A9" transform="translate(59.0625,107.6875)"/>
<path d="M0 0 C0.66 0 1.32 0 2 0 C1.61969349 7.41597703 -2.97562584 13.3755858 -8.25 18.3125 C-12.34129359 21.61311663 -17.06932551 23.31345138 -22 25 C-22.33 24.34 -22.66 23.68 -23 23 C-22.43152344 22.74347656 -21.86304688 22.48695313 -21.27734375 22.22265625 C-15.44306079 19.32986487 -12.10385681 16.14577831 -8.41015625 10.79296875 C-7.94480469 10.20128906 -7.47945312 9.60960937 -7 9 C-6.34 9 -5.68 9 -5 9 C-4.34 6.36 -3.68 3.72 -3 1 C-2.67 2.32 -2.34 3.64 -2 5 C-1.67 5 -1.34 5 -1 5 C-0.67 3.35 -0.34 1.7 0 0 Z " fill="#4CB2EB" transform="translate(178,240)"/>
<path d="M0 0 C0.93585938 0.09023438 1.87171875 0.18046875 2.8359375 0.2734375 C8.19896678 0.94944959 8.19896678 0.94944959 10.625 1.625 C11.9375 4.1875 11.9375 4.1875 12.625 6.625 C11.59375 6.46 10.5625 6.295 9.5 6.125 C1.68723982 5.14665794 -6.68201042 4.79954484 -14.375 6.625 C-14.375 5.965 -14.375 5.305 -14.375 4.625 C-13.055 4.625 -11.735 4.625 -10.375 4.625 C-10.106875 3.985625 -9.83875 3.34625 -9.5625 2.6875 C-7.32419617 -1.20008034 -3.96681242 -0.40211523 0 0 Z " fill="#A1A1A3" transform="translate(144.375,17.375)"/>
<path d="M0 0 C2.475 0.99 2.475 0.99 5 2 C5.04938976 8.21133256 5.08571476 14.42255112 5.10986328 20.6340332 C5.11992894 22.74766022 5.13358257 24.8612733 5.15087891 26.97485352 C5.1751023 30.01061442 5.18647738 33.04619143 5.1953125 36.08203125 C5.20563507 37.02899368 5.21595764 37.97595612 5.22659302 38.95161438 C5.22674408 39.83230087 5.22689514 40.71298737 5.22705078 41.62036133 C5.231492 42.39535477 5.23593323 43.17034821 5.24050903 43.96882629 C5 46 5 46 3 49 C3 33.82 3 18.64 3 3 C2.34 3 1.68 3 1 3 C0.67 2.01 0.34 1.02 0 0 Z " fill="#BBBBB9" transform="translate(103,187)"/>
<path d="M0 0 C3.40460178 0.93683673 4.71358293 1.51685201 6.546875 4.609375 C6.94390625 5.64578125 7.3409375 6.6821875 7.75 7.75 C8.15734375 8.77609375 8.5646875 9.8021875 8.984375 10.859375 C10.72763389 16.25006786 11.59256089 19.81487822 9 25 C7.17938986 22.26908478 6.28717487 20.22315205 5.2734375 17.1484375 C4.809375 15.74851562 4.809375 15.74851562 4.3359375 14.3203125 C4.01882812 13.34835938 3.70171875 12.37640625 3.375 11.375 C3.05015625 10.3953125 2.7253125 9.415625 2.390625 8.40625 C0 1.15401786 0 1.15401786 0 0 Z " fill="#9EA5AD" transform="translate(77,111)"/>
<path d="M0 0 C3.13720927 3.13720927 3.50319239 7.46077094 4.5 11.67773438 C4.94418355 13.46661423 5.46673013 15.23562663 6 17 C6.66 17.33 7.32 17.66 8 18 C8 18.66 8 19.32 8 20 C6.02 20.33 4.04 20.66 2 21 C-0.3931363 13.9203051 -2.36993465 7.40604577 0 0 Z " fill="#9DA3AC" transform="translate(118,122)"/>
<path d="M0 0 C1.32 0 2.64 0 4 0 C3.979375 0.763125 3.95875 1.52625 3.9375 2.3125 C3.87057159 5.10185786 3.87057159 5.10185786 5 8 C4.67 8.99 4.34 9.98 4 11 C6.31 11.33 8.62 11.66 11 12 C11 12.33 11 12.66 11 13 C7.04 13 3.08 13 -1 13 C-0.67 8.71 -0.34 4.42 0 0 Z " fill="#96A5B0" transform="translate(162,176)"/>
<path d="M0 0 C0.33 0.66 0.66 1.32 1 2 C0.67 2.66 0.34 3.32 0 4 C0.66 4.33 1.32 4.66 2 5 C-3.11327668 9.2021343 -7.68755959 11.9710013 -14 14 C-14.33 13.34 -14.66 12.68 -15 12 C-14.41992188 11.72027344 -13.83984375 11.44054687 -13.2421875 11.15234375 C-7.56796704 8.24032632 -3.77533161 5.13741203 0 0 Z " fill="#56B0E4" transform="translate(170,251)"/>
<path d="M0 0 C0.99 0 1.98 0 3 0 C2.98726653 3.75000564 2.85821097 7.34045888 2 11 C-1.0625 13.1875 -1.0625 13.1875 -4 14 C-3.52188823 12.22888156 -3.0424722 10.45811517 -2.5625 8.6875 C-2.29566406 7.70136719 -2.02882812 6.71523437 -1.75390625 5.69921875 C-1.21920575 3.78482474 -0.62855462 1.88566385 0 0 Z " fill="#AAACAF" transform="translate(167,108)"/>
<path d="M0 0 C5.94 0 11.88 0 18 0 C18 0.99 18 1.98 18 3 C15.64561267 4.42944945 14.51967567 5.08661261 11.75 4.625 C11.1725 4.41875 10.595 4.2125 10 4 C10.99 3.67 11.98 3.34 13 3 C8.71 2.67 4.42 2.34 0 2 C0 1.34 0 0.68 0 0 Z " fill="#B9B9B9" transform="translate(305,156)"/>
<path d="M0 0 C1.485 0.99 1.485 0.99 3 2 C3.66 1.67 4.32 1.34 5 1 C5.66 1.33 6.32 1.66 7 2 C6.71890887 3.64767247 6.42481474 5.29313145 6.125 6.9375 C5.96257812 7.85402344 5.80015625 8.77054688 5.6328125 9.71484375 C5.42398438 10.46894531 5.21515625 11.22304687 5 12 C4.01 12.495 4.01 12.495 3 13 C2.49487756 11.39743892 1.99608373 9.79288208 1.5 8.1875 C1.2215625 7.29417969 0.943125 6.40085938 0.65625 5.48046875 C0 3 0 3 0 0 Z " fill="#0F4FA6" transform="translate(121,128)"/>
<path d="M0 0 C4.25491665 0.47276852 6.22542845 2.92547477 9 6 C9.33 6.66 9.66 7.32 10 8 C9.34 8 8.68 8 8 8 C7.67 8.66 7.34 9.32 7 10 C4.03 8.35 1.06 6.7 -2 5 C-0.68 4.67 0.64 4.34 2 4 C1.34 2.68 0.68 1.36 0 0 Z " fill="#94A8B6" transform="translate(155,20)"/>
<path d="M0 0 C0.33 0 0.66 0 1 0 C1 2.64 1 5.28 1 8 C0.01 8 -0.98 8 -2 8 C-1.938125 8.78375 -1.87625 9.5675 -1.8125 10.375 C-1.874375 11.24125 -1.93625 12.1075 -2 13 C-2.99 13.66 -3.98 14.32 -5 15 C-4.94004678 13.20739868 -4.8512759 11.41574205 -4.75 9.625 C-4.70359375 8.62726563 -4.6571875 7.62953125 -4.609375 6.6015625 C-4 4 -4 4 -1.953125 2.6484375 C-1.30859375 2.43445313 -0.6640625 2.22046875 0 2 C0 1.34 0 0.68 0 0 Z " fill="#40B5F5" transform="translate(180,232)"/>
<path d="M0 0 C0.57492188 0.22945313 1.14984375 0.45890625 1.7421875 0.6953125 C0.16391935 2.15912609 -1.42063479 3.61616413 -3.0078125 5.0703125 C-3.88953125 5.88242188 -4.77125 6.69453125 -5.6796875 7.53125 C-7.85583771 9.3578973 -9.66601369 10.59319244 -12.2578125 11.6953125 C-11.06503997 6.7751258 -7.93284472 4.22889691 -4.328125 0.953125 C-2.2578125 -0.3046875 -2.2578125 -0.3046875 0 0 Z " fill="#0D448E" transform="translate(42.2578125,113.3046875)"/>
<path d="M0 0 C1.60781893 0.7631861 3.21113138 1.53587058 4.8125 2.3125 C5.70582031 2.74175781 6.59914062 3.17101562 7.51953125 3.61328125 C9.84213897 4.91174698 11.46961004 5.82523533 13 8 C12.6875 10.1875 12.6875 10.1875 12 12 C11.46890625 11.52949219 10.9378125 11.05898437 10.390625 10.57421875 C9.68421875 9.95160156 8.9778125 9.32898438 8.25 8.6875 C7.55390625 8.07261719 6.8578125 7.45773438 6.140625 6.82421875 C4.03021317 4.97083835 4.03021317 4.97083835 1.734375 3.39453125 C1.16203125 2.93433594 0.5896875 2.47414063 0 2 C0 1.34 0 0.68 0 0 Z " fill="#47B3EF" transform="translate(248,110)"/>
<path d="M0 0 C3.6778787 0.54487092 6.73371844 2.29881169 10 4 C11.33238027 4.66856939 12.66551824 5.33563516 14 6 C12.06440687 6.13504138 10.126128 6.23201129 8.1875 6.3125 C6.56908203 6.39951172 6.56908203 6.39951172 4.91796875 6.48828125 C2 6 2 6 0.11328125 3.48046875 C-0.25410156 2.66191406 -0.62148438 1.84335938 -1 1 C-0.67 0.67 -0.34 0.34 0 0 Z " fill="#A3A4A5" transform="translate(34,169)"/>
<path d="M0 0 C2.88437779 1.29299694 4.87219421 2.65941363 7 5 C7.66 4.34 8.32 3.68 9 3 C9 4.65 9 6.3 9 8 C8.01 7.67 7.02 7.34 6 7 C5.34 7.66 4.68 8.32 4 9 C-0.875 4.25 -0.875 4.25 -2 2 C-1.34 2 -0.68 2 0 2 C0 1.34 0 0.68 0 0 Z " fill="#8EA9BA" transform="translate(253,116)"/>
<path d="M0 0 C0 3 0 3 -1 5 C0.32 5.33 1.64 5.66 3 6 C-6.41002278 9.44419134 -6.41002278 9.44419134 -11 9 C-8.37386366 6.08207073 -5.26167448 4.15131721 -2 2 C-1.34 1.34 -0.68 0.68 0 0 Z " fill="#40A9EC" transform="translate(153,254)"/>
<path d="M0 0 C1.12377697 3.30435084 0.89554742 5.0506862 -0.4375 8.25 C-0.72496094 8.95640625 -1.01242188 9.6628125 -1.30859375 10.390625 C-1.53675781 10.92171875 -1.76492187 11.4528125 -2 12 C-2.99 12 -3.98 12 -5 12 C-4.10164835 4.21428571 -4.10164835 4.21428571 -2 1 C-1.34 0.67 -0.68 0.34 0 0 Z " fill="#A9AAAB" transform="translate(170,170)"/>
<path d="M0 0 C0.93619813 3.15506142 1.1057123 5.96586502 1.0625 9.25 C1.05347656 10.14203125 1.04445312 11.0340625 1.03515625 11.953125 C1.02355469 12.62859375 1.01195312 13.3040625 1 14 C-0.65 14.33 -2.3 14.66 -4 15 C-3.52229477 13.06213915 -3.04278429 11.12472326 -2.5625 9.1875 C-2.29566406 8.10855469 -2.02882813 7.02960938 -1.75390625 5.91796875 C-1.23922588 3.9259157 -0.65062825 1.95188476 0 0 Z " fill="#8E9AA9" transform="translate(130,122)"/>
<path d="M0 0 C0.33 0 0.66 0 1 0 C0.88541307 1.43836751 0.75790884 2.87570966 0.625 4.3125 C0.55539063 5.11300781 0.48578125 5.91351563 0.4140625 6.73828125 C0 9 0 9 -2 12 C-2.66 11.67 -3.32 11.34 -4 11 C-4.56531239 6.1948447 -2.88324916 3.75696103 0 0 Z " fill="#ADACAD" transform="translate(181,139)"/>
<path d="M0 0 C1.17246771 4.09902098 1.07076062 7.75436258 1 12 C0.01 12 -0.98 12 -2 12 C-2.66 13.32 -3.32 14.64 -4 16 C-5 14 -5 14 -4.00390625 10.7421875 C-3.53110016 9.4502948 -3.05028031 8.16131362 -2.5625 6.875 C-2.31951172 6.21628906 -2.07652344 5.55757812 -1.82617188 4.87890625 C-1.22421679 3.25008662 -0.61297588 1.62470425 0 0 Z " fill="#8696AB" transform="translate(182,129)"/>
<path d="M0 0 C0.66 0 1.32 0 2 0 C2.66 1.65 3.32 3.3 4 5 C2.9275 4.855625 1.855 4.71125 0.75 4.5625 C-4.81717318 3.8615969 -10.4070964 3.43811078 -16 3 C-16 2.67 -16 2.34 -16 2 C-10.72 2 -5.44 2 0 2 C0 1.34 0 0.68 0 0 Z " fill="#93A3AF" transform="translate(153,19)"/>
<path d="M0 0 C0.70125 0.45375 1.4025 0.9075 2.125 1.375 C5.02984591 3.01686943 7.8139348 4.03677099 11 5 C11 5.33 11 5.66 11 6 C4.72307692 7.35384615 4.72307692 7.35384615 1.0625 5.5625 C0.381875 5.046875 -0.29875 4.53125 -1 4 C-0.67 2.68 -0.34 1.36 0 0 Z " fill="#A0A2A5" transform="translate(124,257)"/>
<path d="M0 0 C0.99 0.33 1.98 0.66 3 1 C2.67 3.31 2.34 5.62 2 8 C1.34 8 0.68 8 0 8 C-0.66 8.66 -1.32 9.32 -2 10 C-3.39195915 5.82412255 -1.82323219 3.86525224 0 0 Z " fill="#99A0AA" transform="translate(189,111)"/>
<path d="M0 0 C1.67542976 0.28604898 3.34385343 0.61781233 5 1 C4 3 4 3 2.296875 3.62109375 C-0.42164845 4.06955765 -2.99557077 4.09529082 -5.75 4.0625 C-6.73484375 4.05347656 -7.7196875 4.04445313 -8.734375 4.03515625 C-9.48203125 4.02355469 -10.2296875 4.01195312 -11 4 C-11 3.67 -11 3.34 -11 3 C-10.28972656 2.86722656 -9.57945312 2.73445313 -8.84765625 2.59765625 C-7.92855469 2.42105469 -7.00945312 2.24445313 -6.0625 2.0625 C-4.68771484 1.80146484 -4.68771484 1.80146484 -3.28515625 1.53515625 C-1.04710156 1.22285012 -1.04710156 1.22285012 0 0 Z " fill="#B1B1B2" transform="translate(149,263)"/>
<path d="M0 0 C0.99 0 1.98 0 3 0 C2.01 2.97 1.02 5.94 0 9 C-0.33 8.34 -0.66 7.68 -1 7 C-1.66 6.67 -2.32 6.34 -3 6 C-1.125 1.125 -1.125 1.125 0 0 Z " fill="#959EA9" transform="translate(152,157)"/>
<path d="M0 0 C0.66 0.33 1.32 0.66 2 1 C2 5.22528092 1.74375671 6.04518508 -1 9 C-1.66 9 -2.32 9 -3 9 C-2.01 6.03 -1.02 3.06 0 0 Z " fill="#B3B2B3" transform="translate(149,161)"/>
<path d="M0 0 C0.99 0 1.98 0 3 0 C3.33 1.98 3.66 3.96 4 6 C2.35 5.67 0.7 5.34 -1 5 C-0.67 3.35 -0.34 1.7 0 0 Z " fill="#B1B2B0" transform="translate(221,146)"/>
<path d="M0 0 C2.41703243 2.41703243 2.83849795 3.60845705 3 7 C1.0625 9.3125 1.0625 9.3125 -1 11 C-1.14285714 3.57142857 -1.14285714 3.57142857 0 0 Z " fill="#919CAB" transform="translate(118,122)"/>
<path d="M0 0 C1.258125 -0.04125 2.51625 -0.0825 3.8125 -0.125 C4.52019531 -0.14820312 5.22789062 -0.17140625 5.95703125 -0.1953125 C8 0 8 0 11 2 C10.01 2 9.02 2 8 2 C8 2.66 8 3.32 8 4 C5.0280615 2.87548273 2.66559313 1.77706209 0 0 Z " fill="#44A7E7" transform="translate(141,22)"/>
<path d="M0 0 C-0.99 1.485 -0.99 1.485 -2 3 C-3.9453125 3.29296875 -3.9453125 3.29296875 -6.125 3.1875 C-7.40375 3.125625 -8.6825 3.06375 -10 3 C-3.94594595 -1.97297297 -3.94594595 -1.97297297 0 0 Z " fill="#AEADAC" transform="translate(136,19)"/>
<path d="M0 0 C0.99 0 1.98 0 3 0 C3 1.65 3 3.3 3 5 C1.68 5.33 0.36 5.66 -1 6 C-0.67 4.02 -0.34 2.04 0 0 Z " fill="#44B4F3" transform="translate(171,249)"/>
<path d="M0 0 C0.66 0 1.32 0 2 0 C2 2.31 2 4.62 2 7 C1.01 7 0.02 7 -1 7 C-0.67 4.69 -0.34 2.38 0 0 Z " fill="#9AA5AE" transform="translate(261,159)"/>
<path d="M0 0 C4.455 1.98 4.455 1.98 9 4 C7.02 4.99 7.02 4.99 5 6 C3.2925002 4.71937515 1.62626404 3.38232443 0 2 C0 1.34 0 0.68 0 0 Z " fill="#5DB3E0" transform="translate(248,110)"/>
<path d="M0 0 C0.99 0 1.98 0 3 0 C2.74438677 2.3431213 2.40729228 4.67843403 2 7 C1.01 7.495 1.01 7.495 0 8 C0 5.36 0 2.72 0 0 Z " fill="#3B9ADF" transform="translate(162,176)"/>
<path d="M0 0 C0.33 0 0.66 0 1 0 C1.25 3.25 1.25 3.25 1 7 C-0.32 8.32 -1.64 9.64 -3 11 C-2.01 7.37 -1.02 3.74 0 0 Z " fill="#8093AC" transform="translate(176,145)"/>
<path d="M0 0 C0.99 0 1.98 0 3 0 C4.35439668 2.70879335 4.06501451 5.00933268 4 8 C3.34 7.67 2.68 7.34 2 7 C1.26924352 4.6859378 0.59861742 2.35171131 0 0 Z " fill="#53B1E7" transform="translate(256,148)"/>
<path d="M0 0 C0.33 0 0.66 0 1 0 C0.67 2.64 0.34 5.28 0 8 C-0.99 7.01 -1.98 6.02 -3 5 C-2 2 -2 2 0 0 Z " fill="#AEB0B2" transform="translate(189,118)"/>
<path d="M0 0 C0.33 0.66 0.66 1.32 1 2 C1.66 2 2.32 2 3 2 C2.67 3.32 2.34 4.64 2 6 C0.68 6.33 -0.64 6.66 -2 7 C-1.42415568 4.61435923 -0.77772405 2.33317216 0 0 Z " fill="#AAAAAF" transform="translate(140,93)"/>
<path d="M0 0 C0.99 0 1.98 0 3 0 C2.34 1.98 1.68 3.96 1 6 C0.01 5.34 -0.98 4.68 -2 4 C-1.34 2.68 -0.68 1.36 0 0 Z " fill="#8F9AAA" transform="translate(165,120)"/>
<path d="M0 0 C1.9375 0.3125 1.9375 0.3125 4 1 C4.33 1.99 4.66 2.98 5 4 C4.01 4 3.02 4 2 4 C1.34 2.68 0.68 1.36 0 0 Z M-2 4 C-0.68 4 0.64 4 2 4 C2 4.66 2 5.32 2 6 C0.68 5.34 -0.64 4.68 -2 4 Z " fill="#77A9C6" transform="translate(155,20)"/>
</svg>
